<svg xmlns="http://www.w3.org/2000/svg" viewBox="0 0 500 500"><g id="freepik--text-2--inject-24"><g id="freepik--Text--inject-24"><path d="M276.46,444.16a24.33,24.33,0,0,1,5.54-2.32,30.18,30.18,0,0,1,5.71-1.06,23.13,23.13,0,0,1,5.09.07,10.77,10.77,0,0,1,3.66,1,.61.61,0,0,1,.37.52.55.55,0,0,1-.33.49L291.17,446a3.92,3.92,0,0,1-1.08.43,7.73,7.73,0,0,1-1.2.13h-.8a8.72,8.72,0,0,0-1.34.09,11.33,11.33,0,0,0-1.75.4,10.06,10.06,0,0,0-2,.91,13.4,13.4,0,0,0-1.39.91,5.06,5.06,0,0,0-.93.92,1.19,1.19,0,0,0-.27.88,1.17,1.17,0,0,0,.68.79,2.78,2.78,0,0,0,1.4.37,8.44,8.44,0,0,0,2.06-.32c.84-.22,1.87-.56,3.09-1l4.53-1.72a40.28,40.28,0,0,1,5.05-1.6,21.09,21.09,0,0,1,4.52-.61,15.34,15.34,0,0,1,4.11.45,15,15,0,0,1,3.87,1.6,6.35,6.35,0,0,1,2.77,2.68,4.1,4.1,0,0,1,.16,3.12,8.43,8.43,0,0,1-2.22,3.33A21.29,21.29,0,0,1,306,461a26.08,26.08,0,0,1-5.78,2.49,29.81,29.81,0,0,1-5.87,1.15,23.16,23.16,0,0,1-5.29-.07,11.36,11.36,0,0,1-4-1.2.6.6,0,0,1-.37-.51.57.57,0,0,1,.33-.5l5.33-3.08a3.77,3.77,0,0,1,1-.43,5.51,5.51,0,0,1,1.08-.13l1,0a12.15,12.15,0,0,0,1.63-.07,11.78,11.78,0,0,0,2.05-.41,10.4,10.4,0,0,0,2.35-1,12.55,12.55,0,0,0,3.13-2.36c.65-.73.57-1.34-.24-1.81a2.75,2.75,0,0,0-1.55-.28,12.45,12.45,0,0,0-2.34.48c-.94.28-2.06.67-3.38,1.18s-2.89,1.1-4.71,1.78a24.74,24.74,0,0,1-9.12,1.81,15.66,15.66,0,0,1-7.54-2.12,6.7,6.7,0,0,1-2.54-2.39,4.21,4.21,0,0,1-.51-2.95,6.92,6.92,0,0,1,1.71-3.22A15.82,15.82,0,0,1,276.46,444.16Z" style="fill:#e0e0e0"></path><path d="M317.11,421.16a2.32,2.32,0,0,1,1.1-.26,2.26,2.26,0,0,1,1.1.26l16.26,9.39a12.83,12.83,0,0,1,4.07,3.38,5.18,5.18,0,0,1,1.08,3.57,6.41,6.41,0,0,1-1.71,3.55,16.61,16.61,0,0,1-4.26,3.33,26.47,26.47,0,0,1-5.8,2.48,24.87,24.87,0,0,1-6.13,1,23.22,23.22,0,0,1-6.15-.63,21.93,21.93,0,0,1-5.87-2.35l-16.25-9.39a.74.74,0,0,1-.45-.63.76.76,0,0,1,.45-.64l5.33-3.08a2.21,2.21,0,0,1,1.1-.26,2.18,2.18,0,0,1,1.1.26l16.09,9.29a10.87,10.87,0,0,0,5,1.52,9.2,9.2,0,0,0,5-1.31c1.62-.94,2.38-1.91,2.26-2.9s-1-2-2.63-2.91l-16.09-9.29a.74.74,0,0,1-.45-.63.76.76,0,0,1,.45-.64Z" style="fill:#e0e0e0"></path><path d="M341,419.87c.32.22.79.51,1.4.88s1.25.75,1.92,1.13,1.32.76,2,1.12,1.17.63,1.55.82a13.61,13.61,0,0,0,2.16.83,9.86,9.86,0,0,0,2.4.35,10.21,10.21,0,0,0,2.59-.3,10.35,10.35,0,0,0,2.71-1.11,7.27,7.27,0,0,0,1.95-1.51,2.84,2.84,0,0,0,.67-1.3,1.69,1.69,0,0,0-.16-1.11,4.5,4.5,0,0,0-.59-.88,1.58,1.58,0,0,1-.47-.79c0-.2.21-.43.67-.69l5.34-3.08a1.9,1.9,0,0,1,.9-.22,1.75,1.75,0,0,1,.89.22,7.44,7.44,0,0,1,2.89,2.84,4.84,4.84,0,0,1,.49,3.39,8.18,8.18,0,0,1-1.87,3.55,15.79,15.79,0,0,1-4.2,3.34,24.34,24.34,0,0,1-6.11,2.52,28.15,28.15,0,0,1-6.31.89,24.4,24.4,0,0,1-6-.59,22.14,22.14,0,0,1-5.25-1.88c-1.17-.61-2.39-1.29-3.67-2s-2.47-1.46-3.58-2.17a10.38,10.38,0,0,1-3.28-3,5.56,5.56,0,0,1-1-3.48,6.51,6.51,0,0,1,1.55-3.64,14.88,14.88,0,0,1,4.37-3.54A25.14,25.14,0,0,1,340.7,408a30.31,30.31,0,0,1,6.15-1.08,24.21,24.21,0,0,1,5.87.28,15.91,15.91,0,0,1,4.93,1.67.63.63,0,0,1,.36.52.6.6,0,0,1-.37.52L352.31,413a2.33,2.33,0,0,1-1.2.39,5.69,5.69,0,0,1-1.37-.27,12.74,12.74,0,0,0-1.53-.34,7.86,7.86,0,0,0-1.91-.1,11.17,11.17,0,0,0-2.26.39,11.39,11.39,0,0,0-2.61,1.13,6.05,6.05,0,0,0-1.93,1.56,2.13,2.13,0,0,0,.1,2.88A7.12,7.12,0,0,0,341,419.87Z" style="fill:#e0e0e0"></path><path d="M369.62,403.36c.33.22.79.51,1.41.88s1.25.75,1.91,1.13,1.32.76,2,1.12,1.16.63,1.54.82a13.61,13.61,0,0,0,2.16.83,9.87,9.87,0,0,0,2.41.35,10.08,10.08,0,0,0,2.58-.3,10.21,10.21,0,0,0,2.71-1.11,7.35,7.35,0,0,0,2-1.51,2.94,2.94,0,0,0,.67-1.3,1.75,1.75,0,0,0-.16-1.11,4.52,4.52,0,0,0-.6-.88,1.55,1.55,0,0,1-.46-.79c0-.19.21-.43.67-.69l5.34-3.08a1.75,1.75,0,0,1,.89-.21,1.79,1.79,0,0,1,.9.21,7.51,7.51,0,0,1,2.89,2.84,5,5,0,0,1,.49,3.39A8.21,8.21,0,0,1,397,407.5a15.53,15.53,0,0,1-4.19,3.34,24.49,24.49,0,0,1-6.11,2.52,28.23,28.23,0,0,1-6.32.89,24.32,24.32,0,0,1-6-.59,21.94,21.94,0,0,1-5.26-1.88c-1.17-.61-2.39-1.29-3.66-2s-2.48-1.46-3.59-2.17a10.49,10.49,0,0,1-3.28-3,5.63,5.63,0,0,1-1-3.48,6.58,6.58,0,0,1,1.55-3.64,15.1,15.1,0,0,1,4.38-3.54,24.78,24.78,0,0,1,5.79-2.43,30.31,30.31,0,0,1,6.15-1.08,24.12,24.12,0,0,1,5.86.29,15.48,15.48,0,0,1,4.93,1.66.64.64,0,0,1,.37.52.61.61,0,0,1-.37.52l-5.34,3.08a2.33,2.33,0,0,1-1.2.39,5.63,5.63,0,0,1-1.36-.27,13.68,13.68,0,0,0-1.53-.34,8.39,8.39,0,0,0-1.91-.1,11.26,11.26,0,0,0-2.27.39,11.15,11.15,0,0,0-2.6,1.13,6.11,6.11,0,0,0-1.94,1.56,2.42,2.42,0,0,0-.51,1.5,2.29,2.29,0,0,0,.61,1.38A7.41,7.41,0,0,0,369.62,403.36Z" style="fill:#e0e0e0"></path><path d="M423.23,385.3a2.18,2.18,0,0,1,1.1-.26,2.21,2.21,0,0,1,1.1.26l4.31,2.49a.75.75,0,0,1,.45.64.74.74,0,0,1-.45.63l-19.3,11.15a2.21,2.21,0,0,1-1.1.26,2.18,2.18,0,0,1-1.1-.26L381.92,385a.78.78,0,0,1-.45-.64.75.75,0,0,1,.45-.63l19-11a2.14,2.14,0,0,1,1.09-.26,2.06,2.06,0,0,1,1.1.26l4.32,2.49a.67.67,0,0,1,0,1.27l-12.54,7.24,4.4,2.54,11.65-6.72a2.44,2.44,0,0,1,2.19,0l4.32,2.49a.67.67,0,0,1,0,1.27l-11.65,6.73,4.56,2.63Z" style="fill:#e0e0e0"></path><path d="M417.2,362.91a24,24,0,0,1,5.54-2.33,30.74,30.74,0,0,1,5.7-1.06,24.41,24.41,0,0,1,5.09.07,10.82,10.82,0,0,1,3.67,1,.58.58,0,0,1,.36.52.54.54,0,0,1-.32.49l-5.34,3.08a3.67,3.67,0,0,1-1.08.44,7.73,7.73,0,0,1-1.2.13l-.79,0a10.45,10.45,0,0,0-3.1.5,9.68,9.68,0,0,0-2,.9,13.41,13.41,0,0,0-1.39.92,4.58,4.58,0,0,0-.94.92,1.22,1.22,0,0,0-.26.88,1.17,1.17,0,0,0,.67.79,3,3,0,0,0,1.41.36,7.91,7.91,0,0,0,2.05-.32,28.53,28.53,0,0,0,3.1-1q1.83-.68,4.52-1.71a39.17,39.17,0,0,1,5.05-1.6,21.17,21.17,0,0,1,4.52-.61,15.06,15.06,0,0,1,4.12.44,15.56,15.56,0,0,1,3.87,1.6,6.57,6.57,0,0,1,2.77,2.68,4.17,4.17,0,0,1,.16,3.13,8.43,8.43,0,0,1-2.22,3.33,21.56,21.56,0,0,1-4.42,3.26,27.49,27.49,0,0,1-5.78,2.49,29.81,29.81,0,0,1-5.87,1.15,23.84,23.84,0,0,1-5.3-.07,11.63,11.63,0,0,1-4-1.2.61.61,0,0,1-.37-.52.58.58,0,0,1,.33-.49l5.34-3.08a3.7,3.7,0,0,1,1-.44,6.39,6.39,0,0,1,1.07-.13l1,0a14,14,0,0,0,1.63-.07,11.88,11.88,0,0,0,2.06-.41,10.66,10.66,0,0,0,2.34-1,12.63,12.63,0,0,0,3.14-2.35c.65-.74.57-1.34-.25-1.81a2.64,2.64,0,0,0-1.54-.28,12.14,12.14,0,0,0-2.34.48c-.94.27-2.07.67-3.39,1.18s-2.88,1.1-4.7,1.77a24.59,24.59,0,0,1-9.13,1.81,15.64,15.64,0,0,1-7.53-2.11,6.73,6.73,0,0,1-2.55-2.39,4.22,4.22,0,0,1-.51-2.95,6.87,6.87,0,0,1,1.71-3.22A15.72,15.72,0,0,1,417.2,362.91Z" style="fill:#e0e0e0"></path><path d="M444.65,347.06a24.36,24.36,0,0,1,5.54-2.33,31,31,0,0,1,5.71-1.06,24.43,24.43,0,0,1,5.09.07,10.76,10.76,0,0,1,3.66,1,.6.6,0,0,1,.37.52.56.56,0,0,1-.33.49l-5.33,3.08a4,4,0,0,1-1.08.44,7.73,7.73,0,0,1-1.2.13l-.8,0a10.46,10.46,0,0,0-3.09.5,10,10,0,0,0-2,.9,13.41,13.41,0,0,0-1.39.92,4.77,4.77,0,0,0-.93.92,1.18,1.18,0,0,0-.27.88,1.19,1.19,0,0,0,.68.79,2.88,2.88,0,0,0,1.4.36,8,8,0,0,0,2.06-.32,31.7,31.7,0,0,0,3.09-1q1.83-.67,4.52-1.71a39.29,39.29,0,0,1,5.06-1.6,21.09,21.09,0,0,1,4.52-.61,14.94,14.94,0,0,1,4.11.44,15.19,15.19,0,0,1,3.87,1.6,6.4,6.4,0,0,1,2.77,2.68,4.12,4.12,0,0,1,.16,3.13,8.43,8.43,0,0,1-2.22,3.33,21.28,21.28,0,0,1-4.42,3.25,26.59,26.59,0,0,1-5.78,2.5,30.41,30.41,0,0,1-5.87,1.15,23.75,23.75,0,0,1-5.29-.07,11.63,11.63,0,0,1-4-1.2.6.6,0,0,1-.37-.52.55.55,0,0,1,.33-.49l5.33-3.08a3.83,3.83,0,0,1,1-.44,6.39,6.39,0,0,1,1.08-.13l1,0a14.09,14.09,0,0,0,1.63-.07,12.79,12.79,0,0,0,2.05-.41,10.94,10.94,0,0,0,2.35-1,12.55,12.55,0,0,0,3.13-2.35c.65-.74.57-1.34-.24-1.81a2.59,2.59,0,0,0-1.55-.28,11.69,11.69,0,0,0-2.34.48c-.94.27-2.06.67-3.38,1.18s-2.89,1.1-4.71,1.77a24.54,24.54,0,0,1-9.12,1.81,15.65,15.65,0,0,1-7.54-2.11,6.77,6.77,0,0,1-2.54-2.39,4.22,4.22,0,0,1-.51-3,6.94,6.94,0,0,1,1.71-3.23A16,16,0,0,1,444.65,347.06Z" style="fill:#e0e0e0"></path></g></g><g id="freepik--Arrow--inject-24"><path d="M345.74,99.64,332.23,74v8.3L287.67,56.54V75.68l44.56,25.72v8.3ZM274.85,68.25l9.79,5.65V54.76l-9.79-5.65Zm-9.79-5.66,6.54,3.76V47.21l-6.54-3.76Z" style="fill:#f0f0f0"></path></g><g id="freepik--Shadows--inject-24"><path id="freepik--Shadow--inject-24" d="M201.09,471.6a20.42,20.42,0,0,1-10-2.5L55.42,390.78c-3.94-2.28-6.21-5.86-6.21-9.83s2.27-7.56,6.21-9.84l150.67-86.86a21.39,21.39,0,0,1,20.07,0L361.8,362.57c3.94,2.28,6.2,5.86,6.2,9.83s-2.26,7.56-6.2,9.84L211.12,469.1a20.35,20.35,0,0,1-10,2.5Z" style="fill:#e0e0e0"></path><path id="freepik--shadow--inject-24" d="M343.69,406.45c22.07,7.59,31.91,28.83,58.72,25.91,9.38-.53,22.44-7.14,14.49-16.28-15.1-13.14-36.85-10.1-54-20.21-6.2-3.38-12.29-9.1-18.75-11.93-6.94-2.71-14.59-4.39-21.8-1.59a6.1,6.1,0,0,0-4.49,6.45C318.35,398.42,335.87,403.23,343.69,406.45Z" style="opacity:0.15"></path></g><g id="freepik--Plant--inject-24"><g id="freepik--Plants--inject-24"><path d="M57.4,381.23a.46.46,0,0,1-.26-.27C51.61,364,34.05,354.87,26.55,351c-1.21-.63-2.17-1.13-2.8-1.52a8.7,8.7,0,0,1-4.47-7.29,7.5,7.5,0,0,1,3.93-6.37c6.07-3.63,18.22,2.16,27.65,13.18,13.21,15.44,11.84,29.36,11.82,29.5a.43.43,0,0,1-.24.34l-4.67,2.41a.41.41,0,0,1-.17.05A.34.34,0,0,1,57.4,381.23Zm-7.21-31.7c-9.16-10.7-20.81-16.41-26.53-13a6.54,6.54,0,0,0-3.5,5.61,7.83,7.83,0,0,0,4.05,6.54c.61.37,1.55.86,2.75,1.49,7.52,3.92,25,13.06,30.86,30l4-2.07C61.94,376.28,62.21,363.58,50.19,349.53Z" style="fill:#7E57C2"></path><path d="M60.25,379.89h.06a.44.44,0,0,0,.34-.52C56.42,359.08,38,342.81,27.69,341a.44.44,0,1,0-.16.86c10.2,1.84,28.25,18.5,32.26,37.73A.44.44,0,0,0,60.25,379.89Z" style="fill:#7E57C2"></path><path d="M62.27,378.85a.41.41,0,0,0,.19-.05L65.6,377a.45.45,0,0,0,.22-.35c0-.2,1.56-20.85-8.74-45.85-5.25-12.73-15.91-23.89-25.35-26.53-4.54-1.27-8.57-.64-12,1.88a6.63,6.63,0,0,0-3.06,5c-.27,5.24,6.51,11.4,13.68,17.92,5,4.56,10.2,9.27,13.12,13.82a.44.44,0,0,0,.74-.48c-3-4.64-8.21-9.4-13.27-14C23.94,322,17.31,316,17.56,311.2a5.73,5.73,0,0,1,2.7-4.33,12.4,12.4,0,0,1,11.23-1.74c9.21,2.57,19.63,13.51,24.78,26C65.9,354.53,65.09,374,65,376.36L62,378a.44.44,0,0,0-.16.6A.45.45,0,0,0,62.27,378.85Z" style="fill:#7E57C2"></path><path d="M60.31,366.37h0a.44.44,0,0,0,.37-.5c-4.57-31.82-27.7-52.87-33.84-56a.44.44,0,0,0-.59.2.44.44,0,0,0,.19.59c6.05,3.07,28.84,23.85,33.37,55.33A.44.44,0,0,0,60.31,366.37Z" style="fill:#7E57C2"></path></g></g><g id="freepik--Floor--inject-24"><g id="freepik--floor--inject-24"><path d="M358.3,353.91,222.66,275.59a14.47,14.47,0,0,0-13.07,0L58.92,362.45c-1.8,1.05-2.71,2.41-2.7,3.78h0v14.16h0c0,1.36.9,2.73,2.7,3.77l135.63,78.32a14.47,14.47,0,0,0,13.07,0L358.3,375.62c1.8-1,2.7-2.41,2.7-3.77h0V357.69h0C361,356.32,360.1,355,358.3,353.91Z" style="fill:#37474f"></path><path d="M201.09,449.89v14.16a13.4,13.4,0,0,1-6.54-1.57L58.92,384.16c-1.8-1.05-2.71-2.4-2.71-3.78V366.23c0,1.37.91,2.73,2.71,3.77l135.63,78.32A13.27,13.27,0,0,0,201.09,449.89Z" style="fill:#263238"></path><path d="M58.92,370l135.63,78.32a14.41,14.41,0,0,0,13.07,0L358.3,361.46c3.6-2.08,3.6-5.46,0-7.55L222.66,275.59a14.47,14.47,0,0,0-13.07,0L58.92,362.45C55.31,364.54,55.31,367.92,58.92,370Z" style="fill:#455a64"></path></g></g><g id="freepik--Window--inject-24"><g id="freepik--window--inject-24"><g id="freepik--window--inject-24"><polygon points="67.95 257.19 69.86 257.31 130.08 222.52 129.13 221.82 67.95 257.19" style="fill:#7E57C2"></polygon><g style="opacity:0.85"><polygon points="67.95 257.19 69.86 257.31 130.08 222.52 129.13 221.82 67.95 257.19" style="fill:#fff"></polygon></g><polygon points="129.13 221.82 69.86 256.09 69.86 171.9 129.13 137.64 129.13 221.82" style="fill:#fafafa"></polygon><path d="M132,133.8l-64,37v89.82l64-37Zm-1.91,88.72-60.22,34.8V171.9l60.22-34.79Z" style="fill:#7E57C2"></path><g style="opacity:0.6000000000000001"><path d="M132,133.8l-64,37v89.82l64-37Zm-1.91,88.72-60.22,34.8V171.9l60.22-34.79Z" style="fill:#fff"></path></g><polygon points="130.08 222.52 129.13 221.82 129.13 137.64 130.08 137.11 130.08 222.52" style="fill:#7E57C2"></polygon><g style="opacity:0.6000000000000001"><polygon points="130.08 222.52 129.13 221.82 129.13 137.64 130.08 137.11 130.08 222.52" style="fill:#fff"></polygon></g><g style="opacity:0.30000000000000004"><polygon points="130.08 222.52 129.13 221.82 129.13 137.64 130.08 137.11 130.08 222.52" style="fill:#7E57C2"></polygon></g><polygon points="131.99 133.8 131.04 133.25 67 170.25 67.95 170.8 131.99 133.8" style="fill:#7E57C2"></polygon><g style="opacity:0.85"><polygon points="131.99 133.8 131.04 133.25 67 170.25 67.95 170.8 131.99 133.8" style="fill:#fff"></polygon></g><polygon points="67 170.25 67.95 170.8 67.95 260.62 67 260.07 67 170.25" style="fill:#7E57C2"></polygon><g style="opacity:0.6000000000000001"><polygon points="67 170.25 67.95 170.8 67.95 260.62 67 260.07 67 170.25" style="fill:#fff"></polygon></g><g style="opacity:0.30000000000000004"><polygon points="67 170.25 67.95 170.8 67.95 260.62 67 260.07 67 170.25" style="fill:#7E57C2"></polygon></g><polygon points="69.86 213.9 129.13 179.62 130.08 180.19 69.86 214.99 69.86 213.9" style="fill:#7E57C2"></polygon><g style="opacity:0.85"><polygon points="69.86 213.9 129.13 179.62 130.08 180.19 69.86 214.99 69.86 213.9" style="fill:#fff"></polygon></g><polygon points="130.08 180.19 130.08 182.32 69.86 217.12 69.86 214.99 130.08 180.19" style="fill:#7E57C2"></polygon><polyline points="130.08 180.19 130.08 182.32 69.86 217.12 69.86 214.99" style="fill:#fff;opacity:0.6000000000000001"></polyline></g><g id="freepik--Blinds--inject-24"><path d="M69.86,198.41V201l59.77-34.56-.5-2.24Zm0-3.56v2.55l59.77-34.56-.5-2.24Zm0,7.12v2.55L129.63,170l-.5-2.24Zm0,3.56v2.55l59.77-34.56-.5-2.24Zm59.27-66.28L69.86,173.5V176l59.77-34.56ZM69.86,180.62v2.54l59.77-34.56-.5-2.23Zm0,10.67v2.55l59.77-34.56-.5-2.24Zm0-7.11v2.54l59.77-34.56-.5-2.24Zm0-7.12v2.54L129.63,145l-.5-2.23Zm0,10.68v2.54l59.77-34.56-.5-2.24Z" style="fill:#ebebeb"></path><path d="M129.13,139.25,69.86,173.5v1l59.47-34.39ZM69.86,177.06v1l59.47-34.39-.2-.88Zm0,3.56v1l59.47-34.39-.2-.88Zm0,3.56v1l59.47-34.39-.2-.89Zm0,3.56v1l59.47-34.39-.2-.89Zm0,3.55v1l59.47-34.39-.2-.89Zm0,3.56v1l59.47-34.39-.2-.89Zm0,3.56v1l59.47-34.39-.2-.89Zm0,3.56v1l59.47-34.38-.2-.89Zm0,3.56v1l59.47-34.38-.2-.89Z" style="opacity:0.2"></path></g></g></g><g id="freepik--Pictures--inject-24"><g id="freepik--Diplomas--inject-24"><g id="freepik--Picture--inject-24"><g id="freepik--Frame--inject-24"><polygon points="180.8 167.84 181.62 168.33 198.48 158.6 197.66 158.11 180.8 167.84" style="fill:#fafafa"></polygon><polygon points="197.66 158.11 181.62 167.37 181.62 150.57 197.66 141.32 197.66 158.11" style="fill:#fff"></polygon><path d="M200,138.15l-20,11.53V171l20-11.53Zm-1.55,20.45-16.86,9.73V150.57l16.86-9.73Z" style="fill:#ebebeb"></path><polygon points="198.48 158.6 197.66 158.11 197.66 141.32 198.48 140.84 198.48 158.6" style="fill:#e0e0e0"></polygon><polygon points="200.03 138.15 199.2 137.68 179.24 149.2 180.07 149.68 200.03 138.15" style="fill:#f5f5f5"></polygon><polygon points="179.24 149.2 180.07 149.68 180.07 171.02 179.24 170.54 179.24 149.2" style="fill:#e0e0e0"></polygon></g><g id="freepik--Land--inject-24"><polygon points="197.03 157.61 182.25 166.14 182.25 161.88 185.95 153.34 188.25 155.47 187.42 159.05 192.53 148.13 197.03 153.34 197.03 157.61" style="fill:#f0f0f0"></polygon><path d="M188.11,149.22a2.41,2.41,0,0,0-1.09,1.89c0,.7.49,1,1.09.63a2.41,2.41,0,0,0,1.09-1.89C189.2,149.15,188.71,148.87,188.11,149.22Z" style="fill:#f0f0f0"></path></g></g><g id="freepik--picture--inject-24"><g id="freepik--frame--inject-24"><polygon points="151.75 210.91 152.57 211.4 169.43 201.66 168.6 201.17 151.75 210.91" style="fill:#fafafa"></polygon><polygon points="168.6 201.17 152.57 210.43 152.57 193.63 168.6 184.38 168.6 201.17" style="fill:#fff"></polygon><path d="M171,181.22l-20,11.52v21.34l20-11.52Zm-1.56,20.44-16.85,9.73V193.63l16.86-9.73Z" style="fill:#ebebeb"></path><polygon points="169.43 201.66 168.6 201.17 168.6 184.38 169.43 183.9 169.43 201.66" style="fill:#e0e0e0"></polygon><polygon points="170.98 181.22 170.14 180.74 150.18 192.26 151.02 192.74 170.98 181.22" style="fill:#f5f5f5"></polygon><polygon points="150.18 192.26 151.02 192.74 151.02 214.08 150.18 213.6 150.18 192.26" style="fill:#e0e0e0"></polygon></g><g id="freepik--land--inject-24"><polygon points="167.98 200.67 153.19 209.21 153.19 204.94 156.89 196.4 159.19 198.54 158.36 202.11 163.47 191.19 167.98 196.4 167.98 200.67" style="fill:#f0f0f0"></polygon><path d="M159.05,192.28a2.43,2.43,0,0,0-1.09,1.89c0,.7.49,1,1.09.64a2.42,2.42,0,0,0,1.1-1.9C160.15,192.21,159.66,191.93,159.05,192.28Z" style="fill:#f0f0f0"></path></g></g><g id="freepik--Diploma--inject-24"><g id="freepik--window--inject-24"><polygon points="148.75 187.34 149.66 187.86 172.41 174.73 171.5 174.21 148.75 187.34" style="fill:#f0f0f0"></polygon><polygon points="171.5 174.21 149.66 186.81 149.66 167.89 171.5 155.28 171.5 174.21" style="fill:#fafafa"></polygon><path d="M173.31,153.18l-24.56,14.19v22.07l24.56-14.18Zm-.91,21.55-22.74,13.13v-20l22.74-13.13Z" style="fill:#ebebeb"></path><polygon points="172.41 174.73 171.5 174.21 171.5 155.28 172.41 154.76 172.41 174.73" style="fill:#e0e0e0"></polygon><polygon points="173.31 153.18 172.41 152.66 147.84 166.84 148.75 167.37 173.31 153.18" style="fill:#f5f5f5"></polygon><polygon points="147.84 166.84 148.75 167.37 148.75 189.44 147.84 188.91 147.84 166.84" style="fill:#e0e0e0"></polygon></g><path d="M155,178.22a3.39,3.39,0,0,0-1.54,2.66c0,1,.69,1.38,1.54.89a3.39,3.39,0,0,0,1.54-2.66C156.55,178.13,155.86,177.73,155,178.22Z" style="fill:#e0e0e0"></path><path d="M154.81,167l11.56-6.68c.32-.19.58,0,.58.33v0a1.3,1.3,0,0,1-.58,1l-11.56,6.68c-.33.19-.59,0-.59-.33v0A1.27,1.27,0,0,1,154.81,167Z" style="fill:#e0e0e0"></path><path d="M153,172.29l15.22-8.79c.32-.18.58-.1.58.19a1.15,1.15,0,0,1-.58.86L153,173.35c-.32.18-.58.1-.57-.2A1.17,1.17,0,0,1,153,172.29Z" style="fill:#f0f0f0"></path><path d="M153,174.39l15.22-8.79c.32-.18.58-.1.58.19a1.15,1.15,0,0,1-.58.86L153,175.45c-.32.18-.58.09-.57-.2A1.15,1.15,0,0,1,153,174.39Z" style="fill:#f0f0f0"></path><path d="M153,176.49l15.22-8.79c.32-.18.58-.1.58.19a1.15,1.15,0,0,1-.58.86L153,177.54c-.32.19-.58.1-.57-.19A1.15,1.15,0,0,1,153,176.49Z" style="fill:#f0f0f0"></path><path d="M157.64,179.91a2.19,2.19,0,0,0,.76-.84,1.73,1.73,0,0,0,.23-.57,1.32,1.32,0,0,0,.61.28c.19,0,.49-.06.82-.59a2.31,2.31,0,0,0,.25-.57,2.94,2.94,0,0,0,.59.12c.14,0,.39,0,.6-.49l.06-.16a.89.89,0,0,0,.29.15c.11,0,.33.23.58,0a1.41,1.41,0,0,0,.33-.9,2.73,2.73,0,0,0,.43.16.65.65,0,0,0,.72-.15,1.08,1.08,0,0,0,.35-.86s0,0,.05,0a1.44,1.44,0,0,0,.64.29,1.63,1.63,0,0,0,1.62-.88,2.27,2.27,0,0,0,.37-2.06,8.14,8.14,0,0,0,1.63-1.73s0-.1,0-.06a7.48,7.48,0,0,1-1.67,1.65c0-.1-.08-.18-.11-.24a.88.88,0,0,0-.9-.61,1.83,1.83,0,0,0-.73.27,2.15,2.15,0,0,0-.71.65c-.33.52-.25.83-.11.92a1.41,1.41,0,0,0,1-.05,4.81,4.81,0,0,0,1.32-.59,2.48,2.48,0,0,1,.14.89,1.41,1.41,0,0,1-.14.59,1.57,1.57,0,0,1-.54.55,1.33,1.33,0,0,1-1.19.22,2,2,0,0,1-.85-.46c-.06-.13-.12-.23-.14-.28s-.26.32-.24.42a.62.62,0,0,0,.13.27,1.79,1.79,0,0,1,.15.31s.12.29.05.4a1,1,0,0,1-.21.1c-.44.12-.69-.13-1-.23-.06,0-.17.22-.2.32a2.4,2.4,0,0,0-.07.49,1.65,1.65,0,0,0,0,.21l-.06,0a1,1,0,0,1-.9-.46c0-.06-.18.24-.18.35h0v0h0a.37.37,0,0,1,0,.25.31.31,0,0,1-.11.25s-.1,0-.13,0a1.73,1.73,0,0,1-.31-.07,1.18,1.18,0,0,1-.49-.16,1.3,1.3,0,0,0-.2-.65c0-.07-.22.24-.23.35a.79.79,0,0,0,.2.72.9.9,0,0,1-.17.54c-.31.43-.56.23-.69.17a5.38,5.38,0,0,1-.66-.27c-.07-.05-.22.28-.21.38a1.06,1.06,0,0,1-.29.88,1.63,1.63,0,0,1-.38.34C157.63,179.63,157.54,180,157.64,179.91Zm8.94-7a4.49,4.49,0,0,1-1.11.44,1.85,1.85,0,0,1-.88.08c-.08,0-.22-.05-.21-.21s.33-.51.48-.61C165.77,172,166.3,172.28,166.58,172.91Z" style="fill:#e0e0e0"></path></g><g id="freepik--diploma--inject-24"><g id="freepik--window--inject-24"><polygon points="177.81 197.85 178.72 198.38 201.46 185.25 200.55 184.72 177.81 197.85" style="fill:#f0f0f0"></polygon><polygon points="200.55 184.72 178.72 197.33 178.72 178.41 200.55 165.8 200.55 184.72" style="fill:#fafafa"></polygon><path d="M202.37,163.7l-24.56,14.18V200l24.56-14.18Zm-.91,21.55-22.74,13.13v-20l22.74-13.13Z" style="fill:#ebebeb"></path><polygon points="201.46 185.25 200.55 184.72 200.55 165.8 201.46 165.28 201.46 185.25" style="fill:#e0e0e0"></polygon><polygon points="202.37 163.7 201.46 163.18 176.9 177.36 177.81 177.88 202.37 163.7" style="fill:#f5f5f5"></polygon><polygon points="176.9 177.36 177.81 177.88 177.81 199.96 176.9 199.43 176.9 177.36" style="fill:#e0e0e0"></polygon></g><path d="M184.07,188.74a3.39,3.39,0,0,0-1.54,2.66c0,1,.69,1.38,1.54.89a3.38,3.38,0,0,0,1.53-2.66C185.6,188.65,184.92,188.25,184.07,188.74Z" style="fill:#e0e0e0"></path><path d="M183.86,177.55l11.56-6.69c.33-.18.59,0,.59.34v0a1.25,1.25,0,0,1-.59,1l-11.56,6.69c-.32.18-.58,0-.58-.34v0A1.27,1.27,0,0,1,183.86,177.55Z" style="fill:#e0e0e0"></path><path d="M182,182.81,197.25,174c.32-.19.58-.1.58.19a1.15,1.15,0,0,1-.58.86L182,183.86c-.32.19-.58.1-.58-.19A1.2,1.2,0,0,1,182,182.81Z" style="fill:#f0f0f0"></path><path d="M182,184.9l15.22-8.78c.32-.19.58-.1.58.19a1.17,1.17,0,0,1-.58.86L182,186c-.32.19-.58.1-.58-.19A1.23,1.23,0,0,1,182,184.9Z" style="fill:#f0f0f0"></path><path d="M182,187l15.22-8.78c.32-.19.58-.1.58.19a1.17,1.17,0,0,1-.58.86L182,188.06c-.32.19-.58.1-.58-.19A1.23,1.23,0,0,1,182,187Z" style="fill:#f0f0f0"></path><path d="M186.69,190.43a2.28,2.28,0,0,0,.77-.84,1.54,1.54,0,0,0,.22-.57,1.4,1.4,0,0,0,.62.28c.18,0,.49-.06.81-.59a2.17,2.17,0,0,0,.26-.57,2.94,2.94,0,0,0,.59.12c.14,0,.39,0,.6-.5a.88.88,0,0,0,.05-.15.86.86,0,0,0,.29.14c.12.05.34.23.59,0a1.32,1.32,0,0,0,.32-.89,2.84,2.84,0,0,0,.44.15.62.62,0,0,0,.72-.14,1.08,1.08,0,0,0,.34-.86h.06a1.26,1.26,0,0,0,.63.29,1.64,1.64,0,0,0,1.63-.87,2.26,2.26,0,0,0,.36-2.06,7.76,7.76,0,0,0,1.64-1.74s0-.1,0,0a7.29,7.29,0,0,1-1.68,1.65,1.45,1.45,0,0,0-.1-.24.88.88,0,0,0-.91-.61,1.74,1.74,0,0,0-.72.27,1.87,1.87,0,0,0-.71.65c-.33.52-.25.83-.11.91s.63.05,1,0a4.46,4.46,0,0,0,1.32-.6,2.11,2.11,0,0,1,.14.89,1.22,1.22,0,0,1-.13.59,1.48,1.48,0,0,1-.54.55,1.31,1.31,0,0,1-1.19.23,2.07,2.07,0,0,1-.85-.46,1.73,1.73,0,0,1-.14-.28c0-.12-.26.32-.24.42a.79.79,0,0,0,.12.26,1.57,1.57,0,0,1,.15.32s.13.28.06.4l-.22.1c-.43.12-.69-.14-1-.23-.06,0-.18.22-.2.31a2.4,2.4,0,0,0-.07.5l0,.21-.06,0a1,1,0,0,1-.89-.46c0-.07-.18.24-.18.34h0v0h0a.44.44,0,0,1,.05.25.31.31,0,0,1-.11.25.16.16,0,0,1-.13,0,1.07,1.07,0,0,1-.31-.06,1,1,0,0,1-.49-.17,1.29,1.29,0,0,0-.2-.64c0-.08-.22.24-.23.35a.74.74,0,0,0,.2.71.91.91,0,0,1-.17.55c-.32.43-.56.23-.69.17a5.38,5.38,0,0,1-.66-.27c-.08,0-.22.27-.22.37a1.09,1.09,0,0,1-.28.89,1.86,1.86,0,0,1-.38.34C186.69,190.15,186.59,190.48,186.69,190.43Zm8.95-7a5,5,0,0,1-1.11.43,1.88,1.88,0,0,1-.89.08c-.08,0-.21-.05-.2-.21s.33-.5.48-.6C194.82,182.54,195.36,182.8,195.64,183.43Z" style="fill:#e0e0e0"></path></g></g></g><g id="freepik--Clock--inject-24"><g id="freepik--clock--inject-24"><path d="M184.38,111.16h0l-3.61-2.1h0c-2.27-1.15-5.31-.82-8.58,1.29-6.57,4.23-11.59,14-11.21,21.8.19,3.89,1.68,6.56,4,7.74h0L168.5,142h0l0,0h0c2.27,1.16,5.31.82,8.59-1.29,6.57-4.23,11.59-14,11.21-21.79C188.14,115,186.64,112.34,184.38,111.16Z" style="fill:#ebebeb"></path><path d="M168.34,141.88l-3.45-2h0l0,0c-2.27-1.17-3.76-3.85-4-7.73a24.36,24.36,0,0,1,2.37-10.94l3.61,2.09a24.36,24.36,0,0,0-2.37,10.94C164.72,138,166.15,140.67,168.34,141.88Z" style="fill:#e0e0e0"></path><path d="M177.12,140.69c6.57-4.23,11.59-14,11.21-21.79s-6-10.71-12.59-6.47-11.59,14-11.21,21.79S170.55,144.93,177.12,140.69Z" style="fill:#f0f0f0"></path><path d="M171.61,140.15c-3.87.19-4.5-4.17-4.6-6.05-.33-6.88,4.28-15.85,10.08-19.59a8.73,8.73,0,0,1,4.16-1.54c3.87-.19,4.5,4.17,4.6,6,.33,6.88-4.28,15.85-10.08,19.59a8.73,8.73,0,0,1-4.16,1.54Z" style="fill:#fff"></path><path d="M177.19,127.85l-.14,0a.42.42,0,0,1-.28-.4v-10a.42.42,0,1,1,.84,0v8.73l4.65-6a.43.43,0,0,1,.59-.07.42.42,0,0,1,.07.59l-5.4,6.94A.42.42,0,0,1,177.19,127.85Z" style="fill:#e0e0e0"></path><path d="M174.81,135.21h-.06a.19.19,0,0,1-.12-.22L177,127.1a.18.18,0,0,1,.34.1L175,135.08A.2.2,0,0,1,174.81,135.21Z" style="fill:#ebebeb"></path><path d="M177.06,125.44c.77-.5,1.43-.16,1.48.76a3.2,3.2,0,0,1-1.32,2.56c-.77.5-1.44.16-1.48-.76A3.13,3.13,0,0,1,177.06,125.44Z" style="fill:#ebebeb"></path></g></g><g id="freepik--Chair--inject-24"><g id="freepik--chair--inject-24"><path id="freepik--shadow--inject-24" d="M132.26,331.25a12.94,12.94,0,0,0-11.69,0L80.14,354.59l-2.57,1.48c-1.42.82-1.42,2.15,0,3l2.57,1.49,40.42,23.34a12.94,12.94,0,0,0,11.69,0l40.41-23.34,2.58-1.49c1.43-.82,1.43-2.15,0-3l-2.57-1.48Z" style="opacity:0.35000000000000003"></path><path d="M101.48,367.51a4.89,4.89,0,0,0,.09.9,2.12,2.12,0,0,0,.82,1.27l0,0a2.4,2.4,0,0,0,2.51-.2,7.61,7.61,0,0,0,3.45-6,2.44,2.44,0,0,0-1-2.19h0l-.16-.1h0a2.21,2.21,0,0,0-1.47-.06,4.14,4.14,0,0,0-.85.37A7.62,7.62,0,0,0,101.48,367.51Z" style="fill:#455a64"></path><path d="M102.42,360.08a3.17,3.17,0,0,1,1.54-.46,1.77,1.77,0,0,1,1,.27l.09.05,2.23,1.28a2.21,2.21,0,0,0-1.47-.06,4.14,4.14,0,0,0-.85.37,7.62,7.62,0,0,0-3.45,6,4.89,4.89,0,0,0,.09.9,2.12,2.12,0,0,0,.82,1.27l-2.29-1.33,0,0-.2-.11-.06,0a2.56,2.56,0,0,1-.84-2.12A7.62,7.62,0,0,1,102.42,360.08Z" style="fill:#263238"></path><path d="M138.84,347.41a4.22,4.22,0,0,0,.1.91,2.1,2.1,0,0,0,.82,1.26l0,0a2.39,2.39,0,0,0,2.51-.19,7.65,7.65,0,0,0,3.45-6,2.46,2.46,0,0,0-1-2.19h0l-.17-.1h0a2.09,2.09,0,0,0-1.47-.06,3.79,3.79,0,0,0-.84.37A7.61,7.61,0,0,0,138.84,347.41Z" style="fill:#455a64"></path><path d="M139.79,340a3.16,3.16,0,0,1,1.53-.47,1.89,1.89,0,0,1,1,.27l.08,0,2.23,1.29a2.09,2.09,0,0,0-1.47-.06,3.79,3.79,0,0,0-.84.37,7.61,7.61,0,0,0-3.46,6,4.22,4.22,0,0,0,.1.91,2.1,2.1,0,0,0,.82,1.26l-2.29-1.32,0,0-.19-.12-.06,0a2.51,2.51,0,0,1-.85-2.12A7.61,7.61,0,0,1,139.79,340Z" style="fill:#263238"></path><path d="M132.18,375.35a4.3,4.3,0,0,1-.1.91,2.1,2.1,0,0,1-.82,1.26l0,0a2.39,2.39,0,0,1-2.51-.19,7.65,7.65,0,0,1-3.45-6,2.46,2.46,0,0,1,1-2.19h0l.17-.09h0a2.09,2.09,0,0,1,1.47-.06,3.79,3.79,0,0,1,.84.37A7.61,7.61,0,0,1,132.18,375.35Z" style="fill:#455a64"></path><path d="M131.23,367.93a3.16,3.16,0,0,0-1.53-.47,1.92,1.92,0,0,0-1,.27l-.08,0-2.23,1.29a2.09,2.09,0,0,1,1.47-.06,3.79,3.79,0,0,1,.84.37,7.61,7.61,0,0,1,3.46,6,4.3,4.3,0,0,1-.1.91,2.1,2.1,0,0,1-.82,1.26l2.29-1.32,0,0,.19-.12.06,0a2.54,2.54,0,0,0,.85-2.12A7.61,7.61,0,0,0,131.23,367.93Z" style="fill:#263238"></path><path d="M156.43,363.47a5.1,5.1,0,0,1-.09.91,2.1,2.1,0,0,1-.82,1.26l0,0a2.39,2.39,0,0,1-2.51-.19,7.62,7.62,0,0,1-3.45-6,2.44,2.44,0,0,1,1-2.19h0l.16-.09h0a2.09,2.09,0,0,1,1.47-.06,3.28,3.28,0,0,1,.85.37A7.6,7.6,0,0,1,156.43,363.47Z" style="fill:#455a64"></path><path d="M155.49,356.05a3.2,3.2,0,0,0-1.54-.47,1.86,1.86,0,0,0-1,.27l-.09,0-2.23,1.29a2.09,2.09,0,0,1,1.47-.06,3.28,3.28,0,0,1,.85.37,7.6,7.6,0,0,1,3.45,6,5.1,5.1,0,0,1-.09.91,2.1,2.1,0,0,1-.82,1.26l2.29-1.32,0,0,.2-.12.06,0a2.56,2.56,0,0,0,.84-2.12A7.6,7.6,0,0,0,155.49,356.05Z" style="fill:#263238"></path><path d="M109.55,348.9a4.13,4.13,0,0,1-.1.9,2.09,2.09,0,0,1-.82,1.27l0,0a2.37,2.37,0,0,1-2.51-.2,7.63,7.63,0,0,1-3.45-6,2.46,2.46,0,0,1,1-2.19h0l.17-.1h0a2.21,2.21,0,0,1,1.47-.06,4.32,4.32,0,0,1,.84.37A7.63,7.63,0,0,1,109.55,348.9Z" style="fill:#455a64"></path><path d="M108.6,341.48a3.06,3.06,0,0,0-1.53-.47,1.92,1.92,0,0,0-1,.27l-.08.05-2.23,1.28a2.21,2.21,0,0,1,1.47-.06,4.32,4.32,0,0,1,.84.37,7.63,7.63,0,0,1,3.46,6,4.13,4.13,0,0,1-.1.9,2.09,2.09,0,0,1-.82,1.27l2.29-1.32,0,0,.19-.12.06,0a2.54,2.54,0,0,0,.85-2.12A7.6,7.6,0,0,0,108.6,341.48Z" style="fill:#263238"></path><polygon points="130.17 341.6 142.5 338.06 142.5 340.69 130.17 347.81 130.17 341.6" style="fill:#ebebeb"></polygon><polygon points="130.17 341.6 128.95 340.85 141.32 337.47 142.5 338.06 130.17 341.6" style="fill:#f5f5f5"></polygon><polygon points="124.83 349.46 107.35 342.91 107.35 340.24 124.83 341.8 124.83 349.46" style="fill:#ebebeb"></polygon><polygon points="107.35 340.24 108.63 339.9 125.87 341.01 124.83 341.8 107.35 340.24" style="fill:#f5f5f5"></polygon><path d="M124.36,348.62c0,2,6.08,2,6.08,0V325.69h-6.08Z" style="fill:#fafafa"></path><path d="M128.92,344.12l3.35,21.71H130l-3.13-21.71A3.82,3.82,0,0,0,128.92,344.12Z" style="fill:#f5f5f5"></path><polygon points="126.85 344.12 126.85 350.08 129.98 369.5 129.98 365.83 126.85 344.12" style="fill:#ebebeb"></polygon><rect x="129.98" y="365.83" width="2.29" height="3.68" style="fill:#e0e0e0"></rect><polygon points="125.81 349.9 103.27 361.72 103.27 358.08 125.81 344.13 125.81 349.9" style="fill:#ebebeb"></polygon><path d="M125.81,344.13a2.44,2.44,0,0,1-1.45-.65l-22.5,13.65,1.41.95Z" style="fill:#f5f5f5"></path><polygon points="103.27 361.72 103.27 358.08 101.86 357.13 101.86 360.66 103.27 361.72" style="fill:#e0e0e0"></polygon><polygon points="154.24 357.55 130.15 349.3 130.15 343.89 154.24 353.91 154.24 357.55" style="fill:#ebebeb"></polygon><path d="M130.15,343.89c.19-.05.28-.4.29-.94L155,353.61l-.72.3Z" style="fill:#f5f5f5"></path><polygon points="154.95 353.61 154.95 357.13 154.24 357.55 154.24 353.91 154.95 353.61" style="fill:#e0e0e0"></polygon><rect x="129.98" y="365.83" width="2.29" height="3.68" style="opacity:0.1"></rect><polygon points="103.27 361.72 103.27 358.08 101.86 357.13 101.86 360.66 103.27 361.72" style="opacity:0.1"></polygon><polygon points="154.95 353.61 154.95 357.13 154.24 357.55 154.24 353.91 154.95 353.61" style="opacity:0.1"></polygon><path d="M131.67,310h-8.52v24.83c0,2.45,8.52,2.45,8.52,0Z" style="fill:#f0f0f0"></path><path d="M166.23,306.65V309l-37.42,21.6a4.82,4.82,0,0,1-4.79,0L86.61,309v-2.3Z" style="fill:#37474f"></path><rect x="145.48" y="275.25" width="3.98" height="19.77" transform="translate(294.95 570.27) rotate(180)" style="fill:#37474f"></rect><path d="M147.51,270.8l20.86,12.05-8,4.59-23.88-13.79,4.94-2.85A6.05,6.05,0,0,1,147.51,270.8Z" style="fill:#7E57C2"></path><path d="M147.51,270.8l20.86,12.05-8,4.59-23.88-13.79,4.94-2.85A6.05,6.05,0,0,1,147.51,270.8Z" style="fill:#fff;opacity:0.2"></path><polygon points="136.52 275.79 136.52 273.65 160.41 287.44 160.41 289.58 136.52 275.79" style="fill:#7E57C2"></polygon><polygon points="136.52 275.79 136.52 273.65 160.41 287.44 160.41 289.58 136.52 275.79" style="opacity:0.30000000000000004"></polygon><polygon points="168.37 282.85 168.37 284.99 160.41 289.58 160.41 287.44 168.37 282.85" style="fill:#7E57C2"></polygon><polygon points="168.37 282.85 168.37 284.99 160.41 289.58 160.41 287.44 168.37 282.85" style="opacity:0.15"></polygon><path d="M110.33,295.05a4,4,0,0,0,2-3.45v-14c0-1-.73-1.45-1.62-.95L104,280.36a3.48,3.48,0,0,0-1.62,2.76v14.25a3.91,3.91,0,0,1-2,3.45l4-2.32Z" style="fill:#263238"></path><path d="M111.3,295.51a4,4,0,0,0,2-3.45V278c0-1-.73-1.45-1.62-.95L105,280.82a3.46,3.46,0,0,0-1.62,2.76v14.25a3.91,3.91,0,0,1-2,3.45l4-2.32Z" style="fill:#37474f"></path><path d="M86.61,306.65,124,328.23a4.88,4.88,0,0,0,4.86,0l37.39-21.59a8,8,0,0,0-4-6.89l-3.36-1.93-.63-.38L130.9,281.67a8.9,8.9,0,0,0-9,0L90.59,299.76l-.08.05-.07.06A7.91,7.91,0,0,0,86.61,306.65Z" style="fill:#7E57C2"></path><path d="M166.23,306.65a8,8,0,0,0-4-6.89l-3.36-1.93c4.7,2.76,6.63,4.62,3.34,6.51-4,2.31-25.83,14.92-33.31,19.24a5.08,5.08,0,0,1-2.5.68v4.6a5.06,5.06,0,0,0,2.5-.67Z" style="opacity:0.15"></path><path d="M123.9,323.58c-6.28-3.64-22.7-13.13-29.34-16.93-7-4-4.77-6.28-4.12-6.78a7.91,7.91,0,0,0-3.83,6.78l37.29,21.54a5,5,0,0,0,2.52.67v-4.6A5,5,0,0,1,123.9,323.58Z" style="opacity:0.30000000000000004"></path><path d="M119.48,215.23l-2.5-1.46c-1.45-.83-3.46-.7-5.67.57L91.5,225.76c-4.44,2.56-8,8.79-8,13.92V291L86,292.41l35.9-20.72V220.45C121.86,217.87,121,216.06,119.48,215.23Z" style="fill:#37474f"></path><path d="M121.86,252.78V220.45c0-2.58-.91-4.39-2.38-5.22l-2.5-1.46c-1.45-.83-3.46-.7-5.67.57L91.5,225.76a16.5,16.5,0,0,0-5.77,6.15Z" style="fill:#455a64"></path><path d="M119.48,215.23c-1.46-.83-3.46-.71-5.67.57L94,227.21c-4.44,2.56-8,8.8-8,13.92v51.28l3.42,2,35.91-20.72V222.42c0-2.53-.88-4.31-2.3-5.17C122.4,216.89,120.06,215.56,119.48,215.23Z" style="fill:#7E57C2"></path><path d="M88.23,233.36A16.28,16.28,0,0,0,86,241.13v51.28l3.42,2,35.91-20.72v-18.9Z" style="opacity:0.30000000000000004"></path><path d="M125.29,222.42c0-2.53-.88-4.31-2.3-5.17-.59-.36-2.93-1.69-3.51-2-1.46-.83-3.46-.71-5.67.57L94,227.21a16.58,16.58,0,0,0-5.77,6.15l37.06,21.4Z" style="fill:#fff;opacity:0.2"></path><path d="M89.38,294.38V243.1c0-5.12,3.61-11.36,8.05-13.92l19.81-11.41c4.45-2.56,8.05-.48,8.05,4.65v51.24Z" style="fill:#7E57C2"></path><polygon points="106.33 300.74 110.31 300.74 110.31 320.5 106.42 319.29 106.33 300.74" style="fill:#37474f"></polygon><path d="M108.35,296.29l20.86,12-8,4.6L97.37,299.14l4.93-2.85A6,6,0,0,1,108.35,296.29Z" style="fill:#7E57C2"></path><path d="M108.35,296.29l20.86,12-8,4.6L97.37,299.14l4.93-2.85A6,6,0,0,1,108.35,296.29Z" style="fill:#fff;opacity:0.2"></path><polygon points="97.37 301.27 97.37 299.14 121.25 312.93 121.25 315.07 97.37 301.27" style="fill:#7E57C2"></polygon><polygon points="97.37 301.27 97.37 299.14 121.25 312.93 121.25 315.07 97.37 301.27" style="opacity:0.30000000000000004"></polygon><polygon points="129.21 308.33 129.21 310.47 121.25 315.07 121.25 312.93 129.21 308.33" style="fill:#7E57C2"></polygon><polygon points="129.21 308.33 129.21 310.47 121.25 315.07 121.25 312.93 129.21 308.33" style="opacity:0.15"></polygon></g></g><g id="freepik--Desk--inject-24"><g id="freepik--desk--inject-24"><g id="freepik--Table--inject-24"><polygon points="262.06 282.07 262.06 279.6 262.06 279.6 262.06 260.73 264.24 259.52 264.24 280.86 323.9 315.36 323.9 317.88 264.24 283.33 264.24 331.27 262.06 332.48 262.06 282.07 262.06 282.07" style="fill:#7E57C2"></polygon><polygon points="262.06 282.07 262.06 279.6 262.06 279.6 262.06 260.73 264.24 259.52 264.24 280.86 323.9 315.36 323.9 317.88 264.24 283.33 264.24 331.27 262.06 332.48 262.06 282.07 262.06 282.07" style="fill:#fff;opacity:0.30000000000000004"></polygon><polygon points="262.06 282.07 262.06 279.6 262.06 279.6 262.06 260.73 264.24 259.52 264.24 280.86 323.9 315.36 323.9 317.88 264.24 283.33 264.24 331.27 262.06 332.48 262.06 282.07 262.06 282.07" style="opacity:0.1"></polygon><path d="M259.88,257.05v74.22l2.18,1.21v-48l61.84,35.81v47.94l2.18,1.3V297.8h0v-2.47Zm2.18,8.42,61.84,35.61v16.8l-61.84-35.81Z" style="fill:#7E57C2"></path><path d="M259.88,257.05v74.22l2.18,1.21v-48l61.84,35.81v47.94l2.18,1.3V297.8h0v-2.47Zm2.18,8.42,61.84,35.61v16.8l-61.84-35.81Z" style="fill:#fff;opacity:0.5"></path><polygon points="139.93 352.74 139.93 350.27 139.93 350.27 139.93 331.4 142.1 330.19 142.1 351.52 201.77 386.03 201.77 388.55 142.1 354 142.1 401.93 139.93 403.14 139.93 352.74 139.93 352.74" style="fill:#7E57C2"></polygon><polygon points="139.93 352.74 139.93 350.27 139.93 350.27 139.93 331.4 142.1 330.19 142.1 351.52 201.77 386.03 201.77 388.55 142.1 354 142.1 401.93 139.93 403.14 139.93 352.74 139.93 352.74" style="fill:#fff;opacity:0.30000000000000004"></polygon><polygon points="139.93 352.74 139.93 350.27 139.93 350.27 139.93 331.4 142.1 330.19 142.1 351.52 201.77 386.03 201.77 388.55 142.1 354 142.1 401.93 139.93 403.14 139.93 352.74 139.93 352.74" style="opacity:0.1"></polygon><polygon points="326.08 295.5 326.08 295.33 326.24 295.42 328.26 294.25 328.26 296.54 328.26 301.74 328.26 368.29 326.08 369.55 326.08 303 206.13 372.05 206.13 438.95 203.95 440.21 203.95 373.3 203.95 365.99 203.95 365.99 326.08 295.5" style="fill:#7E57C2"></polygon><polygon points="326.08 295.5 326.08 295.33 326.24 295.42 328.26 294.25 328.26 296.54 328.26 301.74 328.26 368.29 326.08 369.55 326.08 303 206.13 372.05 206.13 438.95 203.95 440.21 203.95 373.3 203.95 365.99 203.95 365.99 326.08 295.5" style="fill:#fff;opacity:0.5"></polygon><polygon points="326.08 295.5 326.08 295.33 326.24 295.42 328.26 294.25 328.26 296.54 328.26 301.74 328.26 368.29 326.08 369.55 326.08 303 206.13 372.05 206.13 438.95 203.95 440.21 203.95 373.3 203.95 365.99 203.95 365.99 326.08 295.5" style="opacity:0.1"></polygon><path d="M137.75,327.71v74.22l2.18,1.21v-48L201.77,391v47.94l2.18,1.3V366Zm2.18,25V336.13l61.84,35.62v16.79Z" style="fill:#7E57C2"></path><path d="M137.75,327.71v74.22l2.18,1.21v-48L201.77,391v47.94l2.18,1.3V366Zm2.18,25V336.13l61.84,35.62v16.79Z" style="fill:#fff;opacity:0.5"></path><polygon points="203.95 365.99 137.75 327.71 262.06 255.97 328.26 294.25 203.95 365.99" style="fill:#7E57C2"></polygon><polygon points="203.95 365.99 137.75 327.71 262.06 255.97 328.26 294.25 203.95 365.99" style="fill:#fff;opacity:0.65"></polygon></g><g id="freepik--Computer--inject-24"><g id="freepik--Mouse--inject-24"><path d="M218.74,309.69c0-.06,0-.12,0-.17v0c-.18-4.72-6.34-9.13-11.56-10s-8.43,2.91-8.43,5.34v0c-.11,1.77,1.56,3.83,4.77,5.44,4.95,2.47,11.13,3.22,13.83,1.66a2.52,2.52,0,0,0,1.38-2.24Z" style="opacity:0.15"></path><path d="M218.44,308.61c0-.06,0-.12,0-.17v0c-.17-4.5-6-8.71-11-9.54s-8,2.78-8,5.09v0c-.11,1.68,1.49,3.65,4.55,5.18,4.71,2.36,10.61,3.07,13.18,1.59a2.41,2.41,0,0,0,1.32-2.14Z" style="fill:#37474f"></path><path d="M215.31,302.78a11,11,0,0,0-7.74,7.82l.51.14a10.43,10.43,0,0,1,7.69-7.53Z" style="fill:#7E57C2"></path><path d="M217.69,310.32a6.94,6.94,0,0,0-4.61-6.55l-.18.5a6.34,6.34,0,0,1,4.26,6.45A3.19,3.19,0,0,0,217.69,310.32Z" style="fill:#7E57C2"></path></g><g id="freepik--Keyboard--inject-24"><path id="freepik--shadow--inject-24" d="M212.34,298.32,227,306.8a1.78,1.78,0,0,0,1.59,0l42-24.2c.44-.25.44-.66,0-.92l-14.62-8.47a1.75,1.75,0,0,0-1.59,0l-42,24.2A.49.49,0,0,0,212.34,298.32Z" style="opacity:0.15"></path><g id="freepik--keyboard--inject-24"><path d="M268.8,280.43a.54.54,0,0,0-.32-.45l-13.08-7.55a1.72,1.72,0,0,0-1.56,0l-39.91,23.08a.54.54,0,0,0-.32.45v1.38a.54.54,0,0,0,.32.45L227,305.34a1.78,1.78,0,0,0,1.56,0l39.92-23a.53.53,0,0,0,.32-.45C268.81,281.68,268.8,280.6,268.8,280.43Z" style="fill:#263238"></path><path d="M227,303.93l-13.07-7.52a.48.48,0,0,1,0-.9l39.91-23.08a1.72,1.72,0,0,1,1.56,0L268.48,280a.48.48,0,0,1,0,.9l-39.92,23.05A1.72,1.72,0,0,1,227,303.93Z" style="fill:#37474f"></path><path d="M227.73,304.12v1.4a1.71,1.71,0,0,1-.73-.18l-13.07-7.55a.57.57,0,0,1-.32-.45V296a.55.55,0,0,0,.32.45L227,303.93A1.58,1.58,0,0,0,227.73,304.12Z" style="fill:#263238"></path><path d="M254.53,273.62h0l1.3.75-1.76,1-1.34-.75,1.76-1Zm2,1.17h0l1.3.75-1.38.79-1.34-.75,1.38-.8Zm-4.48.25h0l1.3.74-1.38.8-1.34-.75,1.38-.8Zm6.51.92h0l1.29.75L257.67,278l-1.34-.75,2.23-1.29Zm-4.1,0h0l1.3.75-1.1.63-1.34-.75,1.1-.64Zm-4.48.25h0l1.3.75-1.38.8L248.6,277l1.38-.8Zm2.68.79h0l1.3.75-1.1.63-1.34-.75,1.1-.63Zm7.92.1h0l1.3.75-1.76,1-1.34-.75,1.76-1Zm-12.68.31h0l1.29.75-10,5.75-1.34-.75,10-5.75Zm7.73.21h0l1.3.75-1.1.63-1.34-.75,1.1-.64Zm-4.76.41h0l1.29.75-1.09.63-1.34-.75,1.09-.64Zm11.74.24h0l1.3.75-1.1.63-1.34-.75,1.09-.63Zm-4.48.25h0l1.3.74-1.1.64-1.34-.76,1.1-.63Zm-4.29.14h0l1.29.75-1.09.63-1.34-.75,1.09-.63Zm-4.76.41h0l1.29.75-1.1.63-1.33-.75,1.09-.63Zm11.74.24h0l1.29.75-1.09.63-1.34-.75,1.09-.63Zm-4.48.25h0l1.29.75-1.09.63-1.34-.75,1.09-.63Zm-4.29.13h0l1.29.75-1.1.63-1.33-.75,1.09-.64Zm13,0h0l1.3.75-1.38.79-1.34-.75,1.37-.79Zm-17.79.41h0l1.3.75-1.1.63-1.34-.75,1.1-.64Zm11.75.24h0l1.29.75-1.1.63-1.34-.75,1.1-.63Zm-4.49.25h0l1.3.74-1.1.64-1.34-.76,1.1-.63Zm-4.29.14h0l1.3.75-1.1.63-1.34-.75,1.1-.63Zm-4.76.41h0l1.29.75-1.09.63-1.34-.75,1.09-.63Zm16.72.2h0l1.3.75-1.1.63-1.34-.75,1.1-.64Zm-5,0h0l1.3.74-1.1.63-1.34-.75,1.1-.63Zm-4.48.25h0l1.3.75L253,283l-1.34-.75,1.1-.63Zm-4.29.13h0l1.29.75-1.09.63-1.34-.75,1.09-.63Zm-4.76.41h0L245,283l-1.1.63-1.33-.75,1.09-.63Zm16.72.21h0l1.29.75-1.09.63-1.34-.75,1.1-.63Zm-5,0h0l1.29.75-1.09.63-1.34-.75,1.09-.63Zm-4.48.25h0l1.29.74-1.09.64-1.34-.76,1.09-.63Zm-4.29.14h0l1.29.75-1.1.63-1.33-.75,1.09-.63Zm-4.77.41h0l1.3.75-1.1.63-1.34-.75,1.1-.63Zm16.73.2h0l1.29.75-1.09.63-1.34-.75,1.09-.64Zm-5,0h0l1.29.74-1.1.64-1.33-.76,1.09-.63Zm-16.42.11h0l1.3.75-1.38.79-1.34-.75,1.38-.79Zm11.94.14h0l1.3.75-1.1.63-1.33-.75,1.09-.63Zm-4.29.13h0l1.3.75-1.1.63-1.34-.75,1.1-.63Zm-4.77.41h0l1.29.75-1.09.63-1.34-.75,1.09-.63Zm16.73.21h0l1.3.75-1.1.63-1.34-.75,1.1-.63Zm-5,0h0l1.3.75-1.1.63-1.34-.75,1.1-.63Zm-4.48.25h0l1.3.74-1.1.64-1.34-.76,1.1-.63Zm-12.21,0h0l1.29.75-1.38.79-1.34-.75,1.38-.8Zm7.92.11h0l1.3.75-1.1.63-1.34-.75,1.09-.63Zm-4.76.41h0l1.29.75-1.09.63-1.34-.75,1.09-.63Zm11.74.24h0l1.29.74-1.09.64-1.34-.76,1.09-.63Zm-4.48.25h0l1.29.75-1.09.63-1.34-.75,1.09-.63Zm-4.29.13h0l1.29.75-1.09.63-1.34-.75,1.09-.63Zm13,0h0l1.3.75-1.1.63-1.34-.75,1.1-.63Zm-21.18,0h0l1.3.74-1.38.8-1.34-.75,1.38-.8Zm3.45.35h0l1.3.75-1.1.63-1.34-.75,1.1-.63Zm11.74.25h0l1.29.75-1.09.63-1.34-.75,1.09-.63Zm-4.48.24h0l1.29.74-1.1.64-1.33-.75,1.09-.64Zm-4.29.14h0l1.3.75-1.1.63-1.34-.75,1.1-.63Zm13,0h0l1.29.75-1.09.63-1.34-.75,1.09-.63Zm-21.46.19h0l1.29.74-1.76,1-1.33-.76,1.75-1Zm3.72.19h0l1.3.74-3.46,2-1.34-.76,3.46-2Zm11.74.24h0l1.3.74-1.1.64-1.34-.76,1.1-.63Zm-4.48.25h0l1.3.75-1.1.63-1.34-.75,1.1-.63Zm-4.29.13h0l1.3.75-1.1.63-1.34-.75,1.1-.63Zm13,0h0l1.29.75-1.1.63-1.33-.75,1.09-.63Zm-6,.63h0l1.29.75-1.09.63-1.34-.75,1.09-.63Zm-16.5.16h0l1.3.75-1.1.63-1.34-.75,1.1-.63Zm12,.08h0l1.29.75-1.09.63-1.34-.75,1.09-.64Zm-4.29.14h0l1.29.74-1,.58a.21.21,0,0,0-.11.18.21.21,0,0,0,.12.19l1.7,1-1.29.74-3.36-1.92,2.6-1.51Zm13,0h0l1.3.74-1.1.64-1.34-.76,1.1-.63Zm-6,.62h0l1.29.74-1.09.64-1.34-.76,1.09-.63Zm-16.51.17h0l1.3.74-1.1.64-1.34-.76,1.1-.63Zm12,.08h0l1.29.75-1.09.63-1.34-.75,1.09-.63Zm7.9.62h0l1.29.75-1.09.63-1.34-.75,1.09-.63Zm-5.21.17h0l1.3.75-1.1.63-1.34-.75,1.1-.63Zm-16.51.17h0l1.29.75-1.09.63-1.34-.75,1.09-.63Zm3.82.13s0,0,0,0l1.29.74-1.09.64-1.34-.76,1.09-.63Zm16.11.56h0l1.29.74-1.1.64-1.33-.76,1.09-.63Zm-5.22.17h0l1.3.74-2,1.13-1.34-.76,1.95-1.12Zm-16.88.39h0l1.29.75-2.89,1.67-1.34-.75,2.89-1.67Zm11.84.19h0l1.29.75-1.1.63-1.34-.75,1.1-.63Zm8.46.29h0l1.3.75L243,294l-1.34-.75,1.1-.63Zm-18.27.69h0l1.29.75-1.1.63-1.34-.75,1.1-.63Zm8,.05h0l1.3.74-1.1.64-1.34-.76,1.1-.63Zm3.82.14h0l1.3.75-1.1.63-1.34-.75,1.1-.63Zm4.65.15h0l1.29.74-1.09.64-1.34-.76,1.09-.63Zm-22.1.56h0l1.3.75-1.1.63-1.34-.75,1.1-.63Zm3.82.13h0l1.3.75-1.1.63-1.34-.75,1.1-.63Zm8,.06h0l1.29.75-1.09.63-1.34-.75,1.09-.63Zm-4.2.08h0l1.3.75-1.1.63-1.34-.75,1.1-.63Zm8,.05h0l1.29.74-1.09.64-1.34-.76,1.09-.63Zm4.25.39h0l1.3.75-1.1.63-1.34-.75,1.09-.63Zm-21.7.32h0l3.32,1.92-1.1.63L216,295.89l1.09-.63Zm3.82.14h0l1.29.75-1.09.63-1.34-.75,1.09-.63Zm3.82.13h0l1.29.75-1.09.63-1.34-.75,1.09-.63Zm8,.06h0l1.29.75-1.1.63-1.33-.75,1.09-.63Zm-4.2.08h0l1.29.75-1.09.63-1.34-.75,1.09-.63Zm8.45.3h0l1.29.74-1.09.64-1.34-.76L237,296Zm-14.06.6h0l1.3.75-1.1.63-1.34-.75,1.1-.63Zm3.82.13h0l1.3.75-1.1.63-1.34-.75,1.1-.63Zm3.82.14h0l1.3.75-1.1.63-1.34-.75,1.1-.63Zm4.62.17h0l1.3.75-1.1.63-1.34-.75,1.1-.63Zm-14.06.59h0l3.32,1.92-1.09.63L220,298.23l1.1-.63Zm3.82.14h0l1.3.75-1.1.63-1.34-.75,1.1-.63Zm3.82.13h0l1.3.75-1.1.63-1.34-.75,1.1-.63Zm4.77.69h0l.57.32-1.1.64-.6-.33,1.09-.63Zm-6.56.35h0l1.29.75-1.09.63-1.34-.75,1.09-.63Zm4.77.68h0l.56.32-1.09.63-.6-.32,1.09-.63Zm-6.56.35h0l1.3.75-1.1.63-1.33-.75,1.09-.63Zm4.77.69h0l.56.31-1.1.64-.6-.33,1.09-.63Zm-1.79,1h0l.56.32-1.1.63-.6-.32,1.09-.63Z" style="fill:#7E57C2"></path></g></g><path d="M308.54,298.38l-2.68-1.49a3.25,3.25,0,0,0-3,0l-13.31,7.69-1.75-1a3,3,0,0,0-2.7,0l-16.16,9.39a.82.82,0,0,0,0,1.56l1.7,1-19.24,11.1a.94.94,0,0,0,0,1.77l2.68,1.55a3.43,3.43,0,0,0,3.06,0l19.24-11.11a3,3,0,0,0,2.7,0l16.1-9.36a.82.82,0,0,0,.06-1.53l13.3-7.68A1,1,0,0,0,308.54,298.38Z" style="opacity:0.15"></path><path d="M305.16,285.2l3.75-44.62a3.8,3.8,0,0,0-1.66-3.35,4.24,4.24,0,0,0-3.83.07l-56.08,32.38a4.87,4.87,0,0,0-2.16,3.41l-3.76,44.62a3.83,3.83,0,0,0,1.67,3.35,4.24,4.24,0,0,0,3.83-.07L303,288.61A4.91,4.91,0,0,0,305.16,285.2Z" style="fill:#263238"></path><path d="M305.16,285.2l3.75-44.62a3.8,3.8,0,0,0-1.66-3.35,4.24,4.24,0,0,0-3.83.07l-56.08,32.38a4.41,4.41,0,0,0-1.43,1.45l6.87,4-.43,42.75L303,288.61A4.91,4.91,0,0,0,305.16,285.2Z" style="fill:#455a64"></path><path d="M245.13,319.85l3.76-44.62a4.87,4.87,0,0,1,2.16-3.41l55.39-32c1.09-.63,1.54-.15,1.44,1.1l-2.72,44.29a4.91,4.91,0,0,1-2.17,3.41L246.92,321C245.83,321.62,245,321.11,245.13,319.85Z" style="fill:#37474f"></path><path d="M275.63,280.57a7.63,7.63,0,0,1,3.23-5.44c1.62-.94,2.79,0,2.62,2a7.64,7.64,0,0,1-3.24,5.44C276.63,283.55,275.45,282.63,275.63,280.57Z" style="fill:#7E57C2"></path><polygon points="275.24 296.06 286.11 289.74 284.26 288.67 273.39 294.99 275.24 296.06" style="fill:#455a64"></polygon><path d="M291.15,308.28l-13.23,7.64a1.61,1.61,0,0,1-.85.19,1.66,1.66,0,0,1-.72-.18h0l-5.83-3.37h0a1.71,1.71,0,0,1-.75-1.35v-.31c0-.51.34-.72.78-.46l3.52,2,.79.45-.18-.89-1.24-17,1.85,1.07,10.87-6.32,5.67,17.19A1.38,1.38,0,0,1,291.15,308.28Z" style="fill:#37474f"></path><polygon points="269.96 310.36 274.48 307.75 275.39 313.82 269.96 310.36"></polygon><path d="M275.24,296.06,273.39,295l1.24,17c.1.49-.18.69-.61.44l-3.52-2c-.44-.26-.78-.05-.78.46v.31a1.71,1.71,0,0,0,.75,1.35h0l5.83,3.37h0a1.66,1.66,0,0,0,.72.18Z" style="fill:#263238"></path></g><g id="freepik--Files--inject-24"><path id="freepik--shadow--inject-24" d="M224.88,332.86a.53.53,0,0,0,0-1l-37.4-21.59a1.93,1.93,0,0,0-1.75,0l-33.94,19.59L191,352.45Z" style="opacity:0.15"></path><g id="freepik--File--inject-24"><path d="M221.86,332.72a.57.57,0,0,0,.33-.46c0-.17,0-.71,0-.71l-34.28-19.36a1.78,1.78,0,0,0-1.59,0L155.5,330l35.56,20.52Z" style="fill:#7E57C2"></path><path d="M221.86,332.72a.57.57,0,0,0,.33-.46c0-.17,0-.71,0-.71l-34.28-19.36a1.78,1.78,0,0,0-1.59,0L155.5,330l35.56,20.52Z" style="opacity:0.2"></path><path d="M221.86,332c.45-.25.45-.66,0-.92l-34-19.6a1.78,1.78,0,0,0-1.59,0L155.5,329.29l35.56,20.52Z" style="fill:#7E57C2"></path><path d="M221.86,332c.45-.25.45-.66,0-.92l-34-19.6a1.78,1.78,0,0,0-1.59,0L155.5,329.29l35.56,20.52Z" style="opacity:0.5"></path><path d="M162.6,324.64l22.81-13.16a1.72,1.72,0,0,1,1.59,0l31.32,18.08,3-1.73v3.51l-.06,0c.1.21,0,.45-.27.62l-26.13,15.08-35.56-20.52v-3.84Z" style="fill:#ebebeb"></path><path d="M221,328.16c.44-.25.44-.66,0-.92l-34-19.6a1.78,1.78,0,0,0-1.59,0l-26.14,15.08,35.56,20.52Z" style="fill:#fafafa"></path><polygon points="194.83 343.24 194.83 347.08 159.27 326.56 159.27 322.72 194.83 343.24" style="fill:#e6e6e6"></polygon><path d="M194.41,341.74a.91.91,0,0,0,.29.1.83.83,0,0,0,.47,0,.38.38,0,0,0,.15-.05c.24-.13.21-.37-.06-.53a1.14,1.14,0,0,0-.42-.12.82.82,0,0,0-.5.09.05.05,0,0,0,0,0C194.11,341.39,194.15,341.59,194.41,341.74Z" style="fill:#263238"></path><path d="M190.38,344.74a2.05,2.05,0,0,0,.41,1.33,1.41,1.41,0,0,0,1.14.54h0a2.18,2.18,0,0,0,1.1-.33,1.13,1.13,0,0,0,.21-.12l-.45-.26c-1.09.61-2,.1-2-1.16a4.37,4.37,0,0,1,2-3.41,1.32,1.32,0,0,1,1.49-.08,1,1,0,0,1,.4.59.83.83,0,0,0,.47,0,1.62,1.62,0,0,0-.33-.7,1.43,1.43,0,0,0-1.14-.53,2.27,2.27,0,0,0-1.12.33A4.81,4.81,0,0,0,190.38,344.74Z" style="fill:#263238"></path><path d="M191.53,341.12l30.66-15v.5a.88.88,0,0,1-.39.69l-30.27,14.49Z" style="fill:#7E57C2"></path><path d="M191.53,341.12l30.66-15v.5a.88.88,0,0,1-.39.69l-30.27,14.49Z" style="opacity:0.2"></path><path d="M221.86,326.59c.45-.26.45-.67,0-.93l-34-19.6a1.78,1.78,0,0,0-1.59,0l-30.82,14.8,35.56,20.51Z" style="fill:#7E57C2"></path><polygon points="191.06 350.5 155.5 329.98 155.5 320.85 191.06 341.38 191.06 350.5" style="fill:#7E57C2"></polygon><polygon points="191.06 350.5 155.5 329.98 155.5 320.85 191.06 341.38 191.06 350.5" style="opacity:0.1"></polygon><path d="M184.05,344.64a1.45,1.45,0,0,0,1.15-.55,2.12,2.12,0,0,0,.4-1.32,4.81,4.81,0,0,0-2.2-3.82,2.27,2.27,0,0,0-1.12-.33c-.93,0-1.55.75-1.55,1.87a4.83,4.83,0,0,0,2.21,3.82,2.21,2.21,0,0,0,1.11.33Z" style="fill:#455a64"></path><path d="M185.14,342.77c0,1.26-.88,1.77-2,1.14a4.34,4.34,0,0,1-2-3.42c0-1.26.88-1.77,2-1.14A4.34,4.34,0,0,1,185.14,342.77Z" style="fill:#f5f5f5"></path><path d="M178,338.18v.69c0,1.39-1,1.95-2.17,1.25l-15.41-8.89a4.8,4.8,0,0,1-2.17-3.76v-.69c0-1.38,1-1.95,2.17-1.25l15.41,8.89A4.8,4.8,0,0,1,178,338.18Z" style="fill:#f5f5f5"></path><polygon points="191.54 350.23 191.54 341.14 191.06 341.38 191.06 350.5 191.54 350.23" style="fill:#7E57C2"></polygon><polygon points="191.54 350.23 191.54 341.14 191.06 341.38 191.06 350.5 191.54 350.23" style="opacity:0.2"></polygon></g></g></g></g><g id="freepik--Zone--inject-24"><g id="freepik--zone--inject-24"><path d="M361,156.75V357.69c0,1.37-.9,2.73-2.71,3.77L207.62,448.33a13.3,13.3,0,0,1-6.53,1.55V249a10.52,10.52,0,0,0,6.53-1.58l150.67-86.86C360.1,159.49,361,158.12,361,156.75Z" style="fill:#7E57C2;opacity:0.2"></path><path d="M201.09,249V449.89a15.4,15.4,0,0,1-3.48-.39,11.57,11.57,0,0,1-3.06-1.17L58.91,370A7.69,7.69,0,0,1,57.49,369a3.63,3.63,0,0,1-.42-.47,3.59,3.59,0,0,1-.86-2.25V165.3a3.58,3.58,0,0,0,.86,2.24,3.63,3.63,0,0,0,.42.47,7.93,7.93,0,0,0,1.43,1.06l135.63,78.32A13.38,13.38,0,0,0,201.09,249Z" style="fill:#7E57C2;opacity:0.30000000000000004"></path><path d="M361,156.75c0,1.37-.9,2.74-2.71,3.77L207.62,247.38a14.41,14.41,0,0,1-13.07,0L58.92,169.07A7.93,7.93,0,0,1,57.49,168a3.63,3.63,0,0,1-.42-.47,3.58,3.58,0,0,1-.86-2.24,3.79,3.79,0,0,1,1.28-2.71l.51-.45a9.81,9.81,0,0,1,.92-.62L209.59,74.66a14.47,14.47,0,0,1,13.07,0L358.29,153C360.1,154,361,155.39,361,156.75Z" style="fill:#7E57C2;opacity:0.1"></path><path d="M361,156.75V357.69c0-1.36-.9-2.73-2.71-3.77L222.66,275.59a13.42,13.42,0,0,0-6.49-1.56V73.1a13.34,13.34,0,0,1,6.49,1.56L358.29,153C360.1,154,361,155.39,361,156.75Z" style="fill:#7E57C2;opacity:0.1"></path></g></g><g id="freepik--Character--inject-24"><g id="freepik--character--inject-24"><g id="freepik--Bottom--inject-24"><path d="M353.19,395.16c.51-2.72-2.15-4.33-3.44-5.84-2-2.32-2.66-6-2.75-8.86-.11-3.56-.63-6.08,1.39-9.37,2.39-3.9,5.74-8.49,17.14-19.83l-15.66-7.41c-2.85,5-9.36,15.45-9.36,15.45l-.6.92c-1.37,1.84-2.13,3.26-4.28,4.88l-.79.45c-1.35,1-4.84,2.2-4.64,5.6s1.51,4.21,3.12,6.94a10.33,10.33,0,0,1,1.95,6c.17,2.74,0,3.93.1,6.38.06,2.07,2,5,5.93,6.2C347,398.45,352.69,397.83,353.19,395.16Z" style="fill:#ffa8a7"></path><path d="M328.2,371.32a39.13,39.13,0,0,0-3.91,7.63l4.09,5.45,3-5.76A20.83,20.83,0,0,1,328.2,371.32Z" style="fill:#263238"></path><path d="M328.38,384.4l5.3-.57a4.8,4.8,0,0,0-.66-3.36,7.05,7.05,0,0,0-1.61-1.83Z"></path><path d="M329.22,370a4,4,0,0,0-1,1.18,10.31,10.31,0,0,0,1.37,5.72c1.17,1.66,3,3.39,3.58,5.8s-.31,6.14.76,9.48,4.38,7.1,11.3,7.75c4.95.47,6.77-.56,8.37-1.68.51-2.21.43-2.78-2.33-4.53S329.22,370,329.22,370Z" style="fill:#263238"></path><path d="M338,360.76c-2.1,2.79-2.85,3.86-4.84,5.15a9.37,9.37,0,0,0-4,4.11c-.38,3,.24,4.14,3,7.79a11.22,11.22,0,0,1,2.62,7.69c.11,4.26-1.28,6.33,3.92,10.51,4.06,3.25,12.64,3.16,14.87.72,1.76-5.9-3.32-5.29-4.77-11.41-.8-3.39-1.53-7.14-.63-10.59a12.07,12.07,0,0,1,1.47-3.3c.57-.94,2.31-3.05,1.27-4.17l-.71,1a8.27,8.27,0,0,1-6.05-1.71c-4.95-3.81-4.3-6.34-4.3-6.34l.6-.92C340,358.72,339.23,359.18,338,360.76Z" style="fill:#37474f"></path><path d="M368.24,293.57l11.62-15.86S403,264.85,403,264.33c0,0,4.59,13.26,1.14,31.21a85.67,85.67,0,0,1-18.27,38.15c-4.94,5.8-30.56,28.57-30.56,28.57-2.57-.37-9.74-6-10.64-9.7,0,0,5.61-10.05,8.92-15.21,4.33-6.74,5.6-10,13.72-15.62C366.68,314.8,368.24,293.57,368.24,293.57Z" style="fill:#37474f"></path><path d="M348,351.9l-.52-.34.31-.49c7.79-12.19,15.2-23.51,32.45-27.21l.13.61c-17,3.65-24.33,14.85-32.05,26.94Z" style="fill:#263238"></path><path d="M361.82,326.12c.27-.26.55-.51.84-.77L363,325c.28-.24.57-.49.88-.73.14-.12.27-.23.42-.34.32-.26.65-.52,1-.78l.43-.32c.5-.37,1-.75,1.58-1.14,0-.29-.05-.61-.06-.93,0-.09,0-.17,0-.26,0-.31,0-.64,0-1v-.09q0-.57,0-1.2v-1.61c0-.46,0-.94,0-1.43V315l0-1.42v-.09c0-.54,0-1.09.05-1.65v-.05l.06-1.67v0l22.6-18.89c.11-.5,10.78-7.43,10.78-7.43-.78,6.79-7.74,9.91-7.74,9.91l2.37,26.15c-.14.23-2,3.46-2.13,3.69s-.33.54-.5.8c-.26.43-.53.84-.79,1.24l-.4.62c-.38.57-.75,1.12-1.12,1.65l-.4.57-.74,1-.44.59-.66.87c-.13.18-.27.35-.4.52l-.67.85-.3.38c-.31.38-.62.74-.9,1.07-2.66,3.12-11.32,11.17-18.74,17.93a79.47,79.47,0,0,1,.35-10.7l-5.84-14.64Z" style="fill:#263238"></path><path d="M342.63,355.9s-.25,3.21,4,6.51a10.21,10.21,0,0,0,6.71,2.28l5-4.9s-2.67.72-6.85-2.89a12.94,12.94,0,0,1-4.59-8.5Z" style="fill:#455a64"></path><path d="M388.7,411.12c1.34,3.93,6,4.8,9.61,3.6,2.05-.68,3-3,4.33-4.55,1.92-2.28,4.74-3.56,7.53-4.63s5.67-2,8-3.87a12.75,12.75,0,0,0,4.24-6.12,5.06,5.06,0,0,0,.27-2.37c-.34-1.91-2.44-3.08-4.38-3.08a14.33,14.33,0,0,0-5.54,1.63,71.33,71.33,0,0,1-7.36,2.72,8.39,8.39,0,0,1-2.41.48,4.85,4.85,0,0,1-3.77-2.13c-.78-1.77-1.68-21.4-1.67-22.31l-18.72,4.74s7,21.22,8.14,24.79a9.73,9.73,0,0,1,.24,1.07C387.79,404.42,387.6,407.88,388.7,411.12Z" style="fill:#ffa8a7"></path><path d="M362.41,264.33c-6.38,13.29-8.75,18.5-6.1,31.88,1.81,9.12,7.6,24.27,14.57,44.71-.49,11.72,1.27,15.26,3.76,23.41,3.79,12.47,8.39,23.59,8.39,23.59s3.28-5.22,15.38-4.51C397.66,371.62,397,348.49,396,340c-1.46-12.68-5.6-48.9-5.6-48.9s15.86-.39,12.63-26.72Z" style="fill:#37474f"></path><path d="M387.15,384.91a227.53,227.53,0,0,1-7.27-21.7,83.81,83.81,0,0,1-2.73-15.73c-.2-3.15-.24-7-.31-8.39-.24-4.53-2.19-14.11-5.72-24.61a161.66,161.66,0,0,1-5.83-24.35l.32,0a5.47,5.47,0,0,0,3.46-1.25c3.13-2.45,5.25-8.43,6.33-17.78l-.62-.07c-1,9-3.15,15.05-6.09,17.36a4.88,4.88,0,0,1-3.49,1.09c-1.3-8.92,1-15.32,3-21,.52-1.45,1-2.83,1.43-4.21H369c-.41,1.31-.87,2.62-1.37,4-2.08,5.77-4.43,12.31-3,21.52a155.26,155.26,0,0,0,5.92,24.84c3.36,10,5.45,20,5.68,24.44.07,1.33.12,5.21.31,8.32a78.38,78.38,0,0,0,2.79,15.77c1.56,5.92,4.61,15.12,7.28,22Z" style="fill:#263238"></path><path d="M421.31,389.31c-1.66-1.74-5-.6-7.17.28-4.56,1.85-5.94,3.11-9.32,3.76-4.89.93-4.74-1.87-4.74-1.87s-3.57-2.59-9.89.86c-4.49,2.45-4.45,5.64-4.45,5.64a21.85,21.85,0,0,1,1.49,7.48c.18,4.58.58,6,1.17,7.33l20.4-13.35,1.46-.34C414.67,396.7,421.31,389.31,421.31,389.31Z" style="fill:#37474f"></path><path d="M423.81,392.64a3.78,3.78,0,0,0-1.28-2.56c-.24-.17-1.06-.66-1.22-.77-2.1-1.51-6.13,1.32-9.55,4.13-4,3.27-10.88,3.75-14.19,8.3s-7.24,6.17-8.6,8.18a3.43,3.43,0,0,0,.16,4.23c.19.22.88.93,1,1.08,1,1,2.74,1.5,4.88,1.19,4.31-.61,7.45-1.82,11.23-6.68s8.15-2.34,12.43-5.37A11.89,11.89,0,0,0,423.81,392.64Z" style="fill:#263238"></path><path d="M423.81,392.64c-1-5.74-6.41-2.06-10.83,1.57-4,3.28-10.88,3.75-14.2,8.3s-7.32,6.12-8.59,8.19c-2.32,3.76.52,6.34,4.83,5.72s7.45-1.82,11.23-6.68,8.15-2.34,12.43-5.37A11.89,11.89,0,0,0,423.81,392.64Z"></path><path d="M408.4,407l-9.62-4.5c-3.31,4.55-7.32,6.12-8.59,8.19a12,12,0,0,0-1.43,2.91l1.49,3.25.51.55h0a5.64,5.64,0,0,0,4.85,1.17c4.32-.61,7.45-1.82,11.23-6.68.79-1,1.49-1.91,2.15-2.74Z" style="fill:#263238"></path><path d="M390.79,412.86c-2.32,3.77.52,6.34,4.83,5.73s7.45-1.82,11.23-6.68c.79-1,1.49-1.91,2.15-2.74l-9.62-4.49C396.07,409.23,392.06,410.79,390.79,412.86Z"></path><path d="M380.45,381.31l3.15,8.35s4-4.88,14.91-4.14l-.51-9.16S387.2,374.12,380.45,381.31Z" style="fill:#455a64"></path></g><g id="freepik--Top--inject-24"><path d="M412.2,250.82c-3.1,11-11.73,23-29.91,25.38S357.88,263,360.93,258,412.2,250.82,412.2,250.82Z" style="fill:#37474f"></path><path d="M444.78,224.18c1.83-6,2.2-7.26,2.92-8.52.54-.95,2.57-3.44,3.09-5.49s.9-3.88.9-3.88.38-2-.37-2.81a1.29,1.29,0,0,0-1.74-.32,1.8,1.8,0,0,0-.39-2.18,1.71,1.71,0,0,0-2.18.14s.72-1.79-.74-2.59A1.63,1.63,0,0,0,444,199a2,2,0,0,0-1.24-2.48c-1-.42-2.09,0-3.42,3.16a4.33,4.33,0,0,0-2.24,1.21c-.39.55-2.21,4.25-2,6.59.16,1.57.47,3.15.8,5a9.51,9.51,0,0,1-.75,6.42c-1.18,2.67-6.33,12.56-6.33,12.56s-2.28-1.65-12-8.22c-6.9-4.67-8.88-6-15-5.78-8.62.31-2.23,8.67,2.19,16.44,6.78,3.69,17.66,9.7,22.45,11.51,5.6,2.12,8.78,2.33,11.07-1.38C441.56,237.49,443.14,229.54,444.78,224.18Z" style="fill:#ffa8a7"></path><path d="M396.42,217.36c6.8-.48,10.65-.75,15.56,2.48S428.89,231,428.89,231l4.82-9.84a13,13,0,0,0,5.42,4c3.79,1.61,5.36,1,5.36,1s-2.16,9.44-4.93,14.94-4.57,7.14-10.45,5.49-25.27-12.3-25.27-12.3Z" style="fill:#37474f"></path><path d="M449.46,209.37l-.15.13a1.49,1.49,0,0,1-1.31.36,1.22,1.22,0,0,1-.52-.91,5,5,0,0,1,.14-1.67s0-.05,0-.07-.11,0-.15,0c-.24.24-.41.53-.63.79a1.36,1.36,0,0,1-1.17.47c-.91-.08-1.05-1.22-1-2,0-.24.06-.49.08-.73,0,0,0-.08,0-.08h0a1.19,1.19,0,0,0-.33.34,2.14,2.14,0,0,1-.36.38,1.12,1.12,0,0,1-.59.28c-.48.05-.65-.41-.79-.8a3.85,3.85,0,0,1-.15-2v-.06l.18,0c1.73.36,2.46-1.35,1.93-1.83-.34-.32-.63-.68-1-1a6.86,6.86,0,0,0-1.27-1.07,3,3,0,0,0-1.44-.56,8.61,8.61,0,0,0-1.59.24,4.1,4.1,0,0,1,1.84.11,4,4,0,0,1,1.55,1l.85.78.46.43a.9.9,0,0,1,.26.32c.36.77-.85,1.26-1.4,1.24a10.89,10.89,0,0,1-2.52-.67c-.12.69-1.71,1.67-1.71,1.67a14.13,14.13,0,0,1,3.59,2.63,15.55,15.55,0,0,1,3.05,4.78,9.87,9.87,0,0,0-2-4.63,1.35,1.35,0,0,0,.73-.23c-.07,1,0,2,1.3,2.11a1.61,1.61,0,0,0,1.53-.6,1.42,1.42,0,0,0,.67,1.43,1.29,1.29,0,0,0,1.68-.25,3,3,0,0,0,.21-.33.14.14,0,0,0,0-.07S449.49,209.37,449.46,209.37Zm-9-6a17,17,0,0,0,1.74.42,6.14,6.14,0,0,0-.4.86,1.66,1.66,0,0,1-.3.43.83.83,0,0,1-.12.08,12.67,12.67,0,0,0-1.56-1.2A1.44,1.44,0,0,0,440.44,203.39Z" style="fill:#f28f8f"></path><path d="M441.84,204.66Z" style="fill:#f28f8f"></path><g id="freepik--Chest--inject-24"><path d="M361.31,267.05c2.58-5.5,3.6-7.63,4.59-11.6a35.42,35.42,0,0,0,.53-11.42c-.35-4.46.25-15.27,1.31-19.2s10.15-5.3,20.73-7.42c9.72-1.94,16.68,2,17.74,3.51,2.6,3.8,9.33,14.46,9.06,21.62-.35,9.18-7,10.85-7,10.85s-3.13,5.2-3.86,8.28c-.5,2.13.49,4.73.7,12.08,0,0-2.11,8.75-22.08,5.81C366.49,277.12,361.31,267.05,361.31,267.05Z" style="fill:#7E57C2"></path><path d="M361.42,268c2.59-5.51,3.6-7.63,4.59-11.6a35.17,35.17,0,0,0,.53-11.42c-.35-4.46.25-15.28,1.31-19.21s10.16-5.3,20.73-7.41c10.95-2.19,15.15-.3,17.75,3.5s9.33,14.47,9.05,21.62c-.35,9.18-7.05,10.85-7.05,10.85s-3.12,5.21-3.85,8.29c-.51,2.13.48,4.72.69,12.07,0,0-2.1,8.76-22.07,5.81C366.6,278.05,361.42,268,361.42,268Z" style="fill:#fff;opacity:0.8"></path><path d="M399.66,232.7a31.47,31.47,0,0,1,4.08,11.19,20,20,0,0,1,.2,6,12.71,12.71,0,0,1-.79,3c-.35.95-.75,1.87-1.17,2.77a39.92,39.92,0,0,0-2.33,5.41,10.91,10.91,0,0,0-.49,2.82c0,.93.07,2,.06,3a46.07,46.07,0,0,1-.3,6,19.49,19.49,0,0,1-.59,2.93A6.71,6.71,0,0,1,397,278.4a6.94,6.94,0,0,0,1.12-2.71,19.29,19.29,0,0,0,.4-2.93,46.61,46.61,0,0,0,.05-5.91c0-1-.14-1.94-.14-3a11.77,11.77,0,0,1,.49-3,39,39,0,0,1,2.3-5.55c.43-.89.83-1.79,1.18-2.7a11.72,11.72,0,0,0,.78-2.77,21.5,21.5,0,0,0-.07-5.83,34.42,34.42,0,0,0-1.26-5.76A33.47,33.47,0,0,0,399.66,232.7Z" style="fill:#7E57C2;opacity:0.2"></path><path d="M396,217.44l.87,1.65S407.2,227,410.91,232.3A44.39,44.39,0,0,1,415.1,240c-.92-7.5-6.57-15.89-8.87-19.26C404.32,217.9,402.42,216.77,396,217.44Z" style="fill:#455a64"></path><path d="M400.79,252.73c-2.3,3.2-12.43,6.12-19.11-.09C383.3,258.37,396.06,261.3,400.79,252.73Z" style="fill:#7E57C2;opacity:0.2"></path></g><g id="freepik--Head--inject-24"><path d="M397.8,175.54c-6.79-.88-16.69,1.83-18.16,9.66h0c-2.7.78-4.9,3-5.14,11.43-.18,6.45,1.71,14.08,4.68,15-.72-1.69.05-4.32.05-4.32a6.1,6.1,0,0,0,5.12,6.31,13.79,13.79,0,0,0,2.73.3,17.07,17.07,0,0,0,6.54-3.17l16.46-16.52C412.9,192.82,415.57,177.85,397.8,175.54Z" style="fill:#37474f"></path><path d="M408.11,186.24c1.2,1.48,3.24,5.31,2.87,16.58-.28,8.15-2.84,9.74-5.71,10.91a14.47,14.47,0,0,1-6.38.53l-1.52,6.23s3.91,2,2.37,12.16c-2.33-.91-4.84-4.59-6.59-5.45a56.9,56.9,0,0,1-11.06-6.85L384.8,205c-.66,1.2-3.71,2.47-6.08-.26-2.67-3.05-2.08-7,.12-8.4s4.93-.17,6,2.41c.55,2.4,3.13,2.2,3.42-.95,3.31-1.58,3.58-5.31,2.39-9.22C395.25,184,405.75,185,408.11,186.24Z" style="fill:#ffa8a7"></path><path d="M400.77,195l1.23,8.82,5-2.19C404.71,197.93,402.56,195.66,400.77,195Z" style="fill:#f28f8f"></path><path d="M398.89,214.26c-6.92-.94-10.78-2.67-12.58-7.7,0,0,.22,3.74,2.57,5.88,3,2.74,9.58,3.58,9.58,3.58Z" style="fill:#f28f8f"></path><path d="M402.39,206.53l-4.29-1.46a2.15,2.15,0,0,0,1.32,2.85A2.4,2.4,0,0,0,402.39,206.53Z" style="fill:#b16668"></path><path d="M400.39,208a2.31,2.31,0,0,1-1-.11,2.14,2.14,0,0,1-1.45-1.78A2.6,2.6,0,0,1,400.39,208Z" style="fill:#f28f8f"></path><path d="M395,197.3a1.5,1.5,0,1,0,1.54-1.44A1.48,1.48,0,0,0,395,197.3Z" style="fill:#263238"></path><path d="M405.25,196.82a1.5,1.5,0,1,0,1.31-1.66A1.5,1.5,0,0,0,405.25,196.82Z" style="fill:#263238"></path><path d="M408.5,193.75,405,193a1.75,1.75,0,0,1,2.1-1.42A1.9,1.9,0,0,1,408.5,193.75Z" style="fill:#263238"></path><path d="M393.87,194.53l3.42-1.35a1.77,1.77,0,0,0-2.34-1.06A1.9,1.9,0,0,0,393.87,194.53Z" style="fill:#263238"></path><path d="M389.74,187.3a19.27,19.27,0,0,1,2.14,5.84l7.39-.79a15.27,15.27,0,0,0-.1-5,13.23,13.23,0,0,1,1.65,4.83l6.17-.26a24.1,24.1,0,0,0-.25-5.38,10.62,10.62,0,0,1,2.19,5.3l4.64-.08c.88-2.35-1.15-12.3-7.71-13.72C391.78,175,389.74,187.3,389.74,187.3Z" style="fill:#37474f"></path></g><path d="M382.15,218.16c1.37,11.28,3.43,29.31-6,44.56-12.22,19.84-35.73,21.61-35.73,21.61a59.32,59.32,0,0,1-9.4-11.47c11.35,9.7,14.3-17.37,29-21.2,0,0,7.17,3.44,6-8.95-1-10.41-.88-17.11,4-21.54Z" style="fill:#455a64"></path><path d="M373.6,266.45c-5.48,5.21-14.93,10.78-26.51,10.22s-16-3.81-16-3.81,4.35,9,9.4,11.47C340.46,284.33,359.61,284.33,373.6,266.45Z" style="fill:#37474f"></path><path d="M399.74,232.65s-2.59-1-5.45-6.16c-1.39-2.5-4.12-4.1-6.91-6.3a24,24,0,0,1-4.45-4.6l.28-1.64s-.6.27-1.67,1.91a19.91,19.91,0,0,1-2.68,3.1c1.17,4.84,9.51,10.5,11.14,12.93a7.23,7.23,0,0,0,3.84-3.66S397.17,231.86,399.74,232.65Z" style="fill:#7E57C2"></path><path d="M399.74,232.65s-2.59-1-5.45-6.16c-1.39-2.5-4.12-4.1-6.91-6.3a24,24,0,0,1-4.45-4.6l.28-1.64s-.6.27-1.67,1.91a19.91,19.91,0,0,1-2.68,3.1c1.17,4.84,9.51,10.5,11.14,12.93a7.23,7.23,0,0,0,3.84-3.66S397.17,231.86,399.74,232.65Z" style="fill:#fff;opacity:0.6000000000000001"></path><path d="M397.37,220.49a19.89,19.89,0,0,1,2.38,6.32,25.27,25.27,0,0,1,0,5.84s1-3.45,1.18-4.85,3.26.64,3.26.64a19.51,19.51,0,0,0-1.36-5.83,17,17,0,0,0-2.32-4.55,6.41,6.41,0,0,0-2-2Z" style="fill:#7E57C2"></path><path d="M397.37,220.49a19.89,19.89,0,0,1,2.38,6.32,25.27,25.27,0,0,1,0,5.84s1-3.45,1.18-4.85,3.26.64,3.26.64a19.51,19.51,0,0,0-1.36-5.83,17,17,0,0,0-2.32-4.55,6.41,6.41,0,0,0-2-2Z" style="fill:#fff;opacity:0.6000000000000001"></path><path d="M374.78,220c-8.75,0-12.77,2.47-19.11,9.49-8.66,9.6-16.78,19.23-19.93,24.55l16.71,2.36,14.94-12.63S380.17,238.19,374.78,220Z" style="fill:#37474f"></path><polygon points="375.99 297.65 345.8 278.72 358.78 235.15 388.97 254.08 375.99 297.65" style="fill:#7E57C2"></polygon><polygon points="375.99 297.65 345.8 278.72 358.78 235.15 388.97 254.08 375.99 297.65" style="opacity:0.2"></polygon><polygon points="375.58 295.32 346.66 277.17 358.77 236.53 387.69 254.68 375.58 295.32" style="fill:#fafafa"></polygon><path d="M376.66,281.89l8.17-27.44-26-19.32-13,43.6,27.53,20.43a.84.84,0,0,0,1.37-.48l4.15-13.9a1.62,1.62,0,0,0-.55-1.67Z" style="fill:#7E57C2"></path><path d="M336,254.12c-1.85,4.24-1.51,5.23,2.12,9.63s13.81,13.16,22.74,18.08c5.82,3.21,9.07,4.28,11.83,4.36a10.63,10.63,0,0,0,10.7-8.05c2.27-2.5.91-3.56-.22-4.42l-.6,2a12.5,12.5,0,0,1-6-.37c-2.52-1.05,1.08-3,2.29-4.56s1.57-2.64.48-4.11c-.82-.36-1.57.65-5.19,2.08-2.75,1.08-5.76,3.93-8.56,2.24-2.21-1.33-13.3-13.75-13.3-13.75l1.67-5.58Z" style="fill:#ffa8a7"></path><path d="M335.74,254c-1.32,2.57-1.45,4.16-.72,5.83s4.74,6.22,7.37,8.64,9.8,8.11,11.23,9.07c-.53-3.21,2-8,4.35-9.65s3.9-.32,3.9-.32l-9.62-10.52,2.28-7.64Z" style="fill:#37474f"></path></g></g></g><g id="freepik--broken-pieces--inject-24"><g id="freepik--broken-pieces--inject-24"><polygon points="363.1 215.31 368.76 209.92 374.06 214.44 372.23 216.58 363.1 215.31" style="fill:#7E57C2;opacity:0.2"></polygon><polygon points="372.35 371.45 376.97 378.87 374.42 387.23 369.02 387.23 369.51 375.01 372.35 371.45" style="fill:#7E57C2;opacity:0.2"></polygon><polygon points="367.47 383.24 367.47 388.52 364.5 387.16 364.93 384.13 367.47 383.24" style="fill:#7E57C2;opacity:0.2"></polygon><polygon points="418.15 255.47 427.8 252.17 439.8 255.72 437.67 268.33 422.44 262.79 418.15 255.47" style="fill:#7E57C2;opacity:0.2"></polygon><polygon points="416.37 262.06 425.61 271.47 426.27 279.19 417.93 282.32 414.52 268.51 416.37 262.06" style="fill:#7E57C2;opacity:0.2"></polygon><polygon points="430.27 272.55 431.62 278.98 440.99 275.76 436.46 271.2 430.27 272.55" style="fill:#7E57C2;opacity:0.2"></polygon><polygon points="414.79 203.09 416.05 195.53 426.61 190.61 434.81 198.88 426.61 204.49 414.79 203.09" style="fill:#7E57C2;opacity:0.2"></polygon><polygon points="403.01 318.82 413.25 313.04 428.21 319.57 419.36 331.33 405.47 323.36 403.01 318.82" style="fill:#7E57C2;opacity:0.2"></polygon><polygon points="403.01 322.91 400.53 328.34 401.77 337.88 411.02 338.44 411.02 329.17 404.09 325.75 403.01 322.91" style="fill:#7E57C2;opacity:0.2"></polygon><polygon points="453.02 198.94 452.75 201.27 461.47 198.76 460.02 191.47 455.73 194.9 453.02 198.94" style="fill:#7E57C2;opacity:0.2"></polygon><polygon points="454.45 204.16 460.81 206.88 462.94 202.15 455.82 202.65 454.45 204.16" style="fill:#7E57C2;opacity:0.2"></polygon><polygon points="454.12 207.1 456.61 207.01 458.82 210.98 455.52 212.59 454.12 207.1" style="fill:#7E57C2;opacity:0.2"></polygon><polygon points="414.39 205.27 428.51 209.84 425.98 216.17 415.81 209.36 414.39 205.27" style="fill:#7E57C2;opacity:0.2"></polygon></g></g><g id="freepik--speech-bubble--inject-24"><g id="freepik--speech-bubble--inject-24"><g id="freepik--speech-bubble--inject-24"><path d="M422.84,86.4a36.27,36.27,0,0,0-6.22,72l4,10.51a2.11,2.11,0,0,0,3.93,0l4.1-10.5a36.27,36.27,0,0,0-5.85-72.06Zm33.34,36.36a33.28,33.28,0,0,1-9.09,22.81l-2.78,2.63a33.42,33.42,0,0,1-47-47.22L400,98.22a33.41,33.41,0,0,1,56.21,24.54Z" style="fill:#455a64"></path><path d="M456.18,122.76a33.28,33.28,0,0,1-9.09,22.81l-2.78,2.63a33.42,33.42,0,0,1-47-47.22L400,98.22a33.41,33.41,0,0,1,56.21,24.54Z" style="fill:#fff"></path></g><g id="freepik--Check--inject-24"><path d="M417.69,144.06a5.21,5.21,0,0,1-3.81-1.65l-11.82-12.63a5.21,5.21,0,1,1,7.61-7.13l7.68,8.2,18.18-23a5.22,5.22,0,0,1,8.19,6.47l-21.93,27.78a5.21,5.21,0,0,1-3.88,2Z" style="fill:#7E57C2"></path></g></g></g></svg>